<svg xmlns="http://www.w3.org/2000/svg" xmlns:xlink="http://www.w3.org/1999/xlink" viewBox="0 0 2761.95 2761.29"><defs><style>.cls-1{fill:url(#linear-gradient);}.cls-2{fill:url(#linear-gradient-2);}.cls-3{fill:#91b3fa;}.cls-4{fill:url(#linear-gradient-3);}.cls-5{fill:url(#linear-gradient-4);}.cls-6{fill:url(#linear-gradient-5);}.cls-7{fill:url(#linear-gradient-6);}.cls-8{fill:url(#linear-gradient-7);}.cls-9{fill:url(#linear-gradient-8);}.cls-10{fill:url(#linear-gradient-9);}.cls-11{fill:url(#linear-gradient-10);}.cls-12{fill:url(#linear-gradient-11);}.cls-13{fill:url(#linear-gradient-12);}.cls-14{fill:url(#linear-gradient-13);}.cls-15{fill:url(#linear-gradient-14);}.cls-16{fill:url(#linear-gradient-15);}.cls-17{fill:url(#linear-gradient-16);}.cls-18{fill:url(#linear-gradient-17);}.cls-19{fill:url(#linear-gradient-18);}.cls-20{fill:url(#linear-gradient-19);}.cls-21{fill:url(#linear-gradient-20);}.cls-22{fill:url(#linear-gradient-21);}.cls-23{fill:url(#linear-gradient-22);}.cls-24{fill:url(#linear-gradient-23);}.cls-25{fill:url(#linear-gradient-24);}.cls-26{fill:#7d97f4;}.cls-27{fill:url(#linear-gradient-25);}.cls-28{fill:url(#linear-gradient-26);}.cls-29{fill:url(#linear-gradient-27);}.cls-30{fill:url(#linear-gradient-28);}.cls-31{fill:url(#linear-gradient-29);}.cls-32{fill:url(#linear-gradient-30);}.cls-33{fill:url(#linear-gradient-31);}.cls-34{fill:url(#linear-gradient-32);}.cls-35{fill:url(#linear-gradient-33);}.cls-36{fill:url(#linear-gradient-34);}.cls-37{fill:url(#linear-gradient-35);}.cls-38{fill:url(#linear-gradient-36);}.cls-39{fill:url(#linear-gradient-37);}.cls-40{fill:url(#linear-gradient-38);}.cls-41{fill:url(#linear-gradient-39);}.cls-42{fill:url(#linear-gradient-40);}.cls-43{fill:url(#linear-gradient-41);}.cls-44{fill:url(#linear-gradient-42);}.cls-45{fill:url(#linear-gradient-43);}.cls-46{fill:url(#linear-gradient-44);}.cls-47{fill:url(#linear-gradient-45);}.cls-48{opacity:0.3;}.cls-49{fill:#bdd0fb;}.cls-50{fill:url(#linear-gradient-46);}.cls-51{fill:url(#linear-gradient-47);}.cls-52{fill:url(#linear-gradient-48);}.cls-53{fill:url(#linear-gradient-49);}.cls-54{fill:url(#linear-gradient-50);}.cls-55{fill:url(#linear-gradient-51);}.cls-56{fill:url(#linear-gradient-52);}.cls-57{fill:url(#linear-gradient-53);}.cls-58{fill:url(#linear-gradient-54);}.cls-59{fill:url(#linear-gradient-55);}.cls-60{fill:url(#linear-gradient-56);}.cls-61{fill:url(#linear-gradient-57);}.cls-62{fill:url(#linear-gradient-58);}.cls-63{fill:url(#linear-gradient-59);}.cls-64{fill:url(#linear-gradient-60);}.cls-65{fill:url(#linear-gradient-61);}.cls-66{fill:url(#linear-gradient-62);}.cls-67{fill:url(#linear-gradient-63);}</style><linearGradient id="linear-gradient" x1="-68.79" y1="871.42" x2="1085.66" y2="871.42" gradientTransform="matrix(-1, 0, 0, 1, 1557.04, 0)" gradientUnits="userSpaceOnUse"><stop offset="0" stop-color="#4f52ff"/><stop offset="1" stop-color="#4042e2"/></linearGradient><linearGradient id="linear-gradient-2" x1="522.84" y1="886.57" x2="1565.16" y2="886.57" gradientUnits="userSpaceOnUse"><stop offset="0" stop-color="#dae3fe"/><stop offset="1" stop-color="#e9effd"/></linearGradient><linearGradient id="linear-gradient-3" x1="130.36" y1="863.22" x2="953.18" y2="863.22" xlink:href="#linear-gradient"/><linearGradient id="linear-gradient-4" x1="338.47" y1="956.1" x2="346.1" y2="956.1" xlink:href="#linear-gradient"/><linearGradient id="linear-gradient-5" x1="548.73" y1="1061.24" x2="556.36" y2="1061.24" xlink:href="#linear-gradient"/><linearGradient id="linear-gradient-6" x1="700.77" y1="1016.35" x2="715.86" y2="1016.35" xlink:href="#linear-gradient"/><linearGradient id="linear-gradient-7" x1="860.9" y1="1071.19" x2="868.53" y2="1071.19" xlink:href="#linear-gradient"/><linearGradient id="linear-gradient-8" x1="1488.7" y1="924.53" x2="1433.21" y2="924.53" gradientTransform="matrix(1, 0, 0, 1, 0, 0)" xlink:href="#linear-gradient"/><linearGradient id="linear-gradient-9" x1="1017.32" y1="209.4" x2="961.83" y2="209.4" gradientTransform="matrix(1, 0, 0, 1, 0, 0)" xlink:href="#linear-gradient"/><linearGradient id="linear-gradient-10" x1="1477.16" y1="1154.2" x2="570.1" y2="1154.2" gradientTransform="matrix(1, 0, 0, 1, 0, 0)" xlink:href="#linear-gradient"/><linearGradient id="linear-gradient-11" x1="1005.78" y1="686.93" x2="98.72" y2="686.93" gradientTransform="matrix(1, 0, 0, 1, 0, 0)" xlink:href="#linear-gradient"/><linearGradient id="linear-gradient-12" x1="3377.41" y1="2968.83" x2="2599.94" y2="3814.49" gradientTransform="matrix(-1, 0, 0, 1, 4975.28, 0)" gradientUnits="userSpaceOnUse"><stop offset="0" stop-color="#09005d"/><stop offset="1" stop-color="#1a0f91"/></linearGradient><linearGradient id="linear-gradient-13" x1="3125.05" y1="3031.64" x2="3194.11" y2="3031.64" gradientTransform="matrix(-1, 0, 0, 1, 4975.28, 0)" gradientUnits="userSpaceOnUse"><stop offset="0" stop-color="#febbba"/><stop offset="1" stop-color="#ff928e"/></linearGradient><linearGradient id="linear-gradient-14" x1="3438.62" y1="2012.47" x2="2777.08" y2="2909.11" xlink:href="#linear-gradient-12"/><linearGradient id="linear-gradient-15" x1="3202.99" y1="2808.48" x2="2425.53" y2="3654.14" xlink:href="#linear-gradient-12"/><linearGradient id="linear-gradient-16" x1="2876.17" y1="3028.09" x2="2935.79" y2="3028.09" xlink:href="#linear-gradient-13"/><linearGradient id="linear-gradient-17" x1="3320.72" y1="1925.48" x2="2659.17" y2="2822.12" xlink:href="#linear-gradient-12"/><linearGradient id="linear-gradient-18" x1="15039.02" y1="-7798.95" x2="14664.46" y2="-7504.3" gradientTransform="matrix(-1, 0, 0, 1, 4975.28, 0)" gradientUnits="userSpaceOnUse"><stop offset="0" stop-color="#ff928e"/><stop offset="1" stop-color="#fe7062"/></linearGradient><linearGradient id="linear-gradient-19" x1="1267.65" y1="818.94" x2="1389.5" y2="1167.07" gradientTransform="matrix(1, 0, 0, 1, 0, 0)" xlink:href="#linear-gradient-13"/><linearGradient id="linear-gradient-20" x1="1163.51" y1="855.39" x2="1285.36" y2="1203.52" gradientTransform="matrix(1, 0, 0, 1, 0, 0)" xlink:href="#linear-gradient-13"/><linearGradient id="linear-gradient-21" x1="1257.11" y1="1077.81" x2="1165.34" y2="892.67" gradientTransform="matrix(1, 0, 0, 1, 0, 0)" xlink:href="#linear-gradient-13"/><linearGradient id="linear-gradient-22" x1="14886.5" y1="-7992.86" x2="14511.94" y2="-7698.2" xlink:href="#linear-gradient-18"/><linearGradient id="linear-gradient-23" x1="2637.22" y1="1729.74" x2="3083.69" y2="1729.74" xlink:href="#linear-gradient-13"/><linearGradient id="linear-gradient-24" x1="2642.46" y1="687.41" x2="2312.85" y2="1022.02" gradientTransform="matrix(1, 0, 0, 1, 0, 0)" xlink:href="#linear-gradient"/><linearGradient id="linear-gradient-25" x1="3050.54" y1="1682.92" x2="3189.64" y2="1682.92" xlink:href="#linear-gradient-13"/><linearGradient id="linear-gradient-26" x1="2980.05" y1="1252.42" x2="3156.57" y2="1252.42" xlink:href="#linear-gradient-13"/><linearGradient id="linear-gradient-27" x1="-2732.33" y1="166" x2="-2798.3" y2="-51.57" gradientTransform="matrix(-0.75, -0.67, -0.67, 0.75, -151.05, -803.17)" xlink:href="#linear-gradient-13"/><linearGradient id="linear-gradient-28" x1="-2791.85" y1="-213.08" x2="-2736.67" y2="101.65" gradientTransform="matrix(-0.75, -0.67, -0.67, 0.75, -151.05, -803.17)" xlink:href="#linear-gradient-12"/><linearGradient id="linear-gradient-29" x1="-2799.76" y1="164.99" x2="-2859.11" y2="-30.76" gradientTransform="matrix(-0.75, -0.67, -0.67, 0.75, -151.05, -803.17)" xlink:href="#linear-gradient-13"/><linearGradient id="linear-gradient-30" x1="1039.9" y1="2369.44" x2="863.58" y2="2093.46" gradientUnits="userSpaceOnUse"><stop offset="0" stop-color="#e1473d"/><stop offset="1" stop-color="#e9605a"/></linearGradient><linearGradient id="linear-gradient-31" x1="983.49" y1="2185.13" x2="1215.64" y2="2185.13" gradientTransform="matrix(1, 0, 0, 1, 0, 0)" xlink:href="#linear-gradient-13"/><linearGradient id="linear-gradient-32" x1="-4640.21" y1="2204.66" x2="-4441.1" y2="2204.66" gradientTransform="translate(5920.76 660.85) rotate(7.25)" xlink:href="#linear-gradient-13"/><linearGradient id="linear-gradient-33" x1="-4829.52" y1="3161.85" x2="-4562.67" y2="3161.85" gradientTransform="translate(5860.93)" xlink:href="#linear-gradient-12"/><linearGradient id="linear-gradient-34" x1="-4623.92" y1="2648.73" x2="-4696.84" y2="3152.48" gradientTransform="translate(5860.93)" xlink:href="#linear-gradient-12"/><linearGradient id="linear-gradient-35" x1="-4816.19" y1="3081.44" x2="-4743.99" y2="3081.44" gradientTransform="translate(5860.93)" xlink:href="#linear-gradient-13"/><linearGradient id="linear-gradient-36" x1="-4410.98" y1="3108.97" x2="-4195.52" y2="3108.97" gradientTransform="translate(5860.93)" xlink:href="#linear-gradient-12"/><linearGradient id="linear-gradient-37" x1="-4262.78" y1="2701" x2="-4335.69" y2="3204.75" gradientTransform="translate(5860.93)" xlink:href="#linear-gradient-12"/><linearGradient id="linear-gradient-38" x1="-5215.44" y1="2755.64" x2="-4643.87" y2="2755.64" gradientTransform="translate(5860.93)" xlink:href="#linear-gradient-12"/><linearGradient id="linear-gradient-39" x1="-4474.21" y1="3087.51" x2="-4388.01" y2="3087.51" gradientTransform="translate(5860.93)" xlink:href="#linear-gradient-13"/><linearGradient id="linear-gradient-40" x1="1692.86" y1="2064.33" x2="1617.94" y2="2134.25" gradientTransform="matrix(1, 0, 0, 1, 0, 0)" xlink:href="#linear-gradient-12"/><linearGradient id="linear-gradient-41" x1="-5269.16" y1="1848.32" x2="-5226.67" y2="1741.15" gradientTransform="translate(5689.54 -888.51) rotate(-9.74)" xlink:href="#linear-gradient-13"/><linearGradient id="linear-gradient-42" x1="1587.22" y1="1137.01" x2="1282.58" y2="1546.53" gradientTransform="matrix(1, 0, 0, 1, 0, 0)" xlink:href="#linear-gradient-18"/><linearGradient id="linear-gradient-43" x1="-2802.59" y1="1268.76" x2="-3015.97" y2="1432.03" gradientTransform="translate(3679.23 280.84) rotate(-1.44)" xlink:href="#linear-gradient-13"/><linearGradient id="linear-gradient-44" x1="-2952.5" y1="1139.87" x2="-2759.27" y2="1388.66" gradientTransform="translate(3679.23 280.84) rotate(-1.44)" xlink:href="#linear-gradient-12"/><linearGradient id="linear-gradient-45" x1="-2829.06" y1="1234.17" x2="-3042.44" y2="1397.44" gradientTransform="translate(3679.23 280.84) rotate(-1.44)" xlink:href="#linear-gradient-13"/><linearGradient id="linear-gradient-46" x1="2196.27" y1="1339.68" x2="2307.25" y2="1111.27" gradientTransform="translate(896.43 -188.98) rotate(17)" xlink:href="#linear-gradient-13"/><linearGradient id="linear-gradient-47" x1="3079.08" y1="2168.36" x2="2516.38" y2="2897.54" gradientTransform="matrix(1, 0, 0, 1, 0, 0)" xlink:href="#linear-gradient-13"/><linearGradient id="linear-gradient-48" x1="2655.25" y1="2980.61" x2="2611.6" y2="3649.92" gradientTransform="matrix(1, 0, 0, 1, 0, 0)" xlink:href="#linear-gradient-12"/><linearGradient id="linear-gradient-49" x1="2475.6" y1="2929.07" x2="2888.47" y2="3604.98" gradientTransform="matrix(1, 0, 0, 1, 0, 0)" xlink:href="#linear-gradient-13"/><linearGradient id="linear-gradient-50" x1="2737.68" y1="2992.21" x2="2850.19" y2="2577.34" gradientTransform="matrix(1, 0, 0, 1, 0, 0)" xlink:href="#linear-gradient-12"/><linearGradient id="linear-gradient-51" x1="2234.03" y1="2953.13" x2="2190.38" y2="3622.45" gradientTransform="matrix(1, 0, 0, 1, 0, 0)" xlink:href="#linear-gradient-12"/><linearGradient id="linear-gradient-52" x1="3743.51" y1="1657.66" x2="3353.97" y2="1867.42" gradientTransform="matrix(1, 0, 0, 1, 0, 0)" xlink:href="#linear-gradient-18"/><linearGradient id="linear-gradient-53" x1="2844.58" y1="1980.47" x2="2797.13" y2="1676.03" gradientTransform="matrix(1, 0, 0, 1, 0, 0)" xlink:href="#linear-gradient-13"/><linearGradient id="linear-gradient-54" x1="2214.17" y1="1335.1" x2="2284.31" y2="1158.71" gradientTransform="translate(896.43 -188.98) rotate(17)" xlink:href="#linear-gradient-13"/><linearGradient id="linear-gradient-55" x1="2975.15" y1="1051.11" x2="2562.64" y2="1480.29" gradientTransform="matrix(1, 0.09, -0.09, 1, 251.12, -48.71)" xlink:href="#linear-gradient-12"/><linearGradient id="linear-gradient-56" x1="3331.67" y1="1542.69" x2="2883.51" y2="2008.95" gradientTransform="translate(3.9 -11.42) rotate(-0.09)" xlink:href="#linear-gradient-12"/><linearGradient id="linear-gradient-57" x1="3018.89" y1="2233.79" x2="3559.81" y2="2233.79" gradientTransform="matrix(1, 0, 0, 1, 0, 0)" xlink:href="#linear-gradient-13"/><linearGradient id="linear-gradient-58" x1="2945.02" y1="2420.98" x2="2629.56" y2="2507.44" gradientTransform="translate(-41.47 -55.03) rotate(-2.83)" xlink:href="#linear-gradient-12"/><linearGradient id="linear-gradient-59" x1="2592.65" y1="2013.77" x2="2368.81" y2="2250.35" gradientTransform="matrix(1, 0, 0, 1, 0, 0)" xlink:href="#linear-gradient-12"/><linearGradient id="linear-gradient-60" x1="2457.33" y1="2072.67" x2="2355.77" y2="2225.61" gradientTransform="matrix(1, 0, 0, 1, 0, 0)" xlink:href="#linear-gradient"/><linearGradient id="linear-gradient-61" x1="672.65" y1="2303.8" x2="357.19" y2="2390.26" gradientTransform="matrix(-1, -0.05, -0.05, 1, 1692.94, -55.03)" xlink:href="#linear-gradient-12"/><linearGradient id="linear-gradient-62" x1="317.21" y1="2008.98" x2="93.38" y2="2245.57" gradientTransform="matrix(-1, 0, 0, 1, 1651.47, 0)" xlink:href="#linear-gradient-12"/><linearGradient id="linear-gradient-63" x1="181.9" y1="2067.89" x2="80.33" y2="2220.83" gradientTransform="matrix(-1, 0, 0, 1, 1651.47, 0)" xlink:href="#linear-gradient"/></defs><g id="Illustration"><path class="cls-1" d="M545.72,1271.65h946.13a74.34,74.34,0,0,0,74-67.37l59.63-632.63a74.33,74.33,0,0,0-72.6-81.3L547.14,471.2a74.34,74.34,0,0,0-75.76,74.33V1197.3A74.34,74.34,0,0,0,545.72,1271.65Z" transform="translate(-471.38 -467.27)"/><path class="cls-2" d="M1565,628l-42.29,547a46,46,0,0,1-45.36,42.43L569.3,1227a46,46,0,0,1-46.46-46V592.1a46,46,0,0,1,47.54-46l950.36,32.39A46,46,0,0,1,1565,628Z" transform="translate(-471.38 -467.27)"/><path class="cls-3" d="M1080.23,623,568.15,607.72a9.3,9.3,0,0,0-9.58,9.3v8.25a9.31,9.31,0,0,0,9.18,9.31l512.07,7.07a9.31,9.31,0,0,0,9.44-9.31h0A9.31,9.31,0,0,0,1080.23,623Z" transform="translate(-471.38 -467.27)"/><rect class="cls-3" x="87.19" y="198.69" width="530.7" height="22.14" rx="9.31"/><path class="cls-3" d="M933.84,721.18v1.54a9.31,9.31,0,0,1-9.31,9.31H567.88a9.31,9.31,0,0,1-9.31-9.31v-7.25a9.31,9.31,0,0,1,9.46-9.31l356.65,5.71A9.31,9.31,0,0,1,933.84,721.18Z" transform="translate(-471.38 -467.27)"/><path class="cls-4" d="M694.32,1004a5.7,5.7,0,0,1-3.76-1.41L605.81,928.5a5.73,5.73,0,1,1,7.54-8.62l81.11,70.89L846.84,867a5.73,5.73,0,0,1,7-.17l149.7,109.64,210-251.91a5.73,5.73,0,0,1,8.17-.64s180.62,158.37,203,178a5.72,5.72,0,1,1-7.53,8.62c-20.33-17.78-170.81-149.73-198.63-174.12L1008.89,987.9a5.73,5.73,0,0,1-7.78,1L850.63,878.65,697.94,1002.7A5.78,5.78,0,0,1,694.32,1004Z" transform="translate(-471.38 -467.27)"/><path class="cls-5" d="M1214.75,1137.42a3.81,3.81,0,0,1-3.81-3.81v-11.46a3.82,3.82,0,0,1,7.63,0v11.46A3.82,3.82,0,0,1,1214.75,1137.42Zm0-38.17a3.81,3.81,0,0,1-3.81-3.82V1084a3.82,3.82,0,1,1,7.63,0v11.45A3.82,3.82,0,0,1,1214.75,1099.25Zm0-38.17a3.81,3.81,0,0,1-3.81-3.82v-11.45a3.82,3.82,0,1,1,7.63,0v11.45A3.82,3.82,0,0,1,1214.75,1061.08Zm0-38.17a3.81,3.81,0,0,1-3.81-3.82v-11.45a3.82,3.82,0,1,1,7.63,0v11.45A3.82,3.82,0,0,1,1214.75,1022.91Zm0-38.18a3.8,3.8,0,0,1-3.81-3.81V969.46a3.82,3.82,0,0,1,7.63,0v11.46A3.81,3.81,0,0,1,1214.75,984.73Zm0-38.17a3.81,3.81,0,0,1-3.81-3.82V931.29a3.82,3.82,0,1,1,7.63,0v11.45A3.82,3.82,0,0,1,1214.75,946.56Zm0-38.17a3.81,3.81,0,0,1-3.81-3.82V893.12a3.82,3.82,0,1,1,7.63,0v11.45A3.82,3.82,0,0,1,1214.75,908.39Zm0-38.17a3.81,3.81,0,0,1-3.81-3.82V855a3.82,3.82,0,1,1,7.63,0V866.4A3.82,3.82,0,0,1,1214.75,870.22Zm0-38.18a3.8,3.8,0,0,1-3.81-3.81V816.77a3.82,3.82,0,0,1,7.63,0v11.46A3.81,3.81,0,0,1,1214.75,832Zm0-38.17a3.81,3.81,0,0,1-3.81-3.82V778.6a3.82,3.82,0,0,1,7.63,0v11.45A3.82,3.82,0,0,1,1214.75,793.87Z" transform="translate(-471.38 -467.27)"/><path class="cls-6" d="M1004.49,1128a3.82,3.82,0,0,1-3.82-3.82v-11.45a3.82,3.82,0,1,1,7.64,0v11.45A3.82,3.82,0,0,1,1004.49,1128Zm0-38.17a3.82,3.82,0,0,1-3.82-3.82V1074.6a3.82,3.82,0,1,1,7.64,0v11.45A3.82,3.82,0,0,1,1004.49,1089.87Zm0-38.18a3.81,3.81,0,0,1-3.82-3.81v-11.45a3.82,3.82,0,1,1,7.64,0v11.45A3.81,3.81,0,0,1,1004.49,1051.69Zm0-38.17a3.81,3.81,0,0,1-3.82-3.81V998.25a3.82,3.82,0,0,1,7.64,0v11.46A3.81,3.81,0,0,1,1004.49,1013.52Z" transform="translate(-471.38 -467.27)"/><path class="cls-7" d="M845,1140.36h-.12a3.82,3.82,0,0,1-3.7-3.94l.36-11.45a3.75,3.75,0,0,1,3.93-3.7,3.83,3.83,0,0,1,3.7,3.94l-.36,11.45A3.82,3.82,0,0,1,845,1140.36Zm1.18-38.16h-.12a3.82,3.82,0,0,1-3.7-3.93l.36-11.45a3.82,3.82,0,1,1,7.63.24L850,1098.5A3.81,3.81,0,0,1,846.18,1102.2Zm1.18-38.15h-.12a3.82,3.82,0,0,1-3.69-3.94l.35-11.45a3.74,3.74,0,0,1,3.94-3.69,3.81,3.81,0,0,1,3.69,3.93l-.35,11.45A3.82,3.82,0,0,1,847.36,1064.05Zm1.19-38.16h-.12a3.81,3.81,0,0,1-3.7-3.93l.36-11.45a3.82,3.82,0,1,1,7.63.24l-.36,11.45A3.81,3.81,0,0,1,848.55,1025.89Zm1.18-38.15h-.12a3.82,3.82,0,0,1-3.69-3.94l.35-11.44a3.73,3.73,0,0,1,3.94-3.7,3.82,3.82,0,0,1,3.69,3.94L853.55,984A3.82,3.82,0,0,1,849.73,987.74Zm1.19-38.15h-.12a3.82,3.82,0,0,1-3.7-3.94l.36-11.45a3.77,3.77,0,0,1,3.93-3.69,3.82,3.82,0,0,1,3.7,3.93l-.36,11.45A3.82,3.82,0,0,1,850.92,949.59Zm1.18-38.16H852a3.82,3.82,0,0,1-3.7-3.93l.36-11.45a3.82,3.82,0,1,1,7.63.24l-.36,11.45A3.81,3.81,0,0,1,852.1,911.43Z" transform="translate(-471.38 -467.27)"/><path class="cls-8" d="M692.32,1138a3.81,3.81,0,0,1-3.81-3.82v-11.45a3.82,3.82,0,1,1,7.63,0v11.45A3.82,3.82,0,0,1,692.32,1138Zm0-38.18a3.8,3.8,0,0,1-3.81-3.81v-11.45a3.82,3.82,0,1,1,7.63,0V1096A3.81,3.81,0,0,1,692.32,1099.82Zm0-38.17a3.81,3.81,0,0,1-3.81-3.82v-11.45a3.82,3.82,0,0,1,7.63,0v11.45A3.82,3.82,0,0,1,692.32,1061.65Zm0-38.17a3.81,3.81,0,0,1-3.81-3.82v-11.45a3.82,3.82,0,1,1,7.63,0v11.45A3.82,3.82,0,0,1,692.32,1023.48Z" transform="translate(-471.38 -467.27)"/><path class="cls-9" d="M1438.94,1183.77l-.48,0a5.73,5.73,0,0,1-5.23-6.19l42.93-507a5.73,5.73,0,0,1,11.42,1l-42.94,507A5.72,5.72,0,0,1,1438.94,1183.77Z" transform="translate(-471.38 -467.27)"/><polygon class="cls-10" points="989.22 224.83 1010.21 207.11 1027.91 228.11 1029.3 211.68 1011.6 190.7 990.61 208.41 989.22 224.83"/><path class="cls-11" d="M1471.44,1159.93H588.91a5.73,5.73,0,1,1,0-11.45h882.53a5.73,5.73,0,0,1,0,11.45Z" transform="translate(-471.38 -467.27)"/><polygon class="cls-12" points="140.34 667.51 120.92 686.93 140.34 706.34 123.86 706.34 104.44 686.93 123.86 667.51 140.34 667.51"/><path class="cls-13" d="M1843.63,3031.82s8.06,45.58,12,90.71a31.09,31.09,0,0,1-29.74,33.68c-60.08,2.5-188.61,7.37-234.73,5.31a10.12,10.12,0,0,1-8.91-13.86,22.68,22.68,0,0,1,11.59-12.2l212.3-97.57Z" transform="translate(-471.38 -467.27)"/><path class="cls-14" d="M1850.23,3005l-6.47,54.52s-37.19,17.32-62.59-2.18l15.4-60.76Z" transform="translate(-471.38 -467.27)"/><path class="cls-15" d="M1845.37,1980c2.79,14.24,15,710.51-59.43,1022.53a10.6,10.6,0,0,0,6.21,12.32c11.42,4.66,33.8,11.42,60.62,12.32a18.24,18.24,0,0,0,18.09-13.09c21.28-72.4,123.22-435.11,136.52-781.6,14.86-387.17,0-13.18,0-13.18L1998.66,1980Z" transform="translate(-471.38 -467.27)"/><path class="cls-16" d="M2087.86,3055.6s12.81,23,25.22,84.16a19,19,0,0,1-16.69,22.71c-19.84,2-50.38,4.46-74.85,4.3a18.91,18.91,0,0,1-18.72-21.1c2.71-22.32,11.15-58.94,37.23-87.48Z" transform="translate(-471.38 -467.27)"/><path class="cls-17" d="M2099.11,2985.48,2084,3067.93s-14.95,11.11-44.51,3.05l7.21-88.71Z" transform="translate(-471.38 -467.27)"/><path class="cls-18" d="M2140,2001.39c60.87,367.36-13.21,908-38.19,1013.76a16.5,16.5,0,0,1-13.32,12.53c-11.15,1.85-29.51,3.36-47.61-1.9a15.12,15.12,0,0,1-10.87-13.93c-3.36-85.54,2.68-610.69-54-818.23a47.17,47.17,0,0,0-18.19-26l-110.08-78.26-8.44-126.5Z" transform="translate(-471.38 -467.27)"/><path class="cls-19" d="M1752.08,1305.32c182.42-3,383.69,47.89,383.69,47.89,54.38,317.28,9.51,683.23,9.51,683.23-141.22,37-300.53-22.64-300.53-22.64-23.47-132.61-133-505.83-133-505.83-89.12-11.06-162.55-36.78-223-70.78,46.12-53.46,67.86-121.48,77.31-161.69C1630.55,1295.54,1695.81,1306.25,1752.08,1305.32Z" transform="translate(-471.38 -467.27)"/><path class="cls-20" d="M1213.25,1036.63c17.92-21.65,40.6-11.41,40.6-11.41,26.84,113.39,167.6,205.33,312.21,250.28-9.45,40.21-31.19,108.23-77.31,161.69C1248.76,1302.26,1213.25,1036.63,1213.25,1036.63Z" transform="translate(-471.38 -467.27)"/><path class="cls-21" d="M1217.6,1042.13c-1.88,6,19.84,15,32.62-9.34.45-11.69,7.56-61.74.57-71.26-37.18-50.7-109.27-114.25-109.27-114.25-12.19,12-2.15,23.84-2.15,23.84l35,36.43c-7.31,13.22-16.24,24.38-20.42,40.37a49,49,0,0,0,4.89,36.07c6.14,11.06,14.51,25.43,22.43,36.68C1196.23,1042,1217.6,1042.13,1217.6,1042.13Z" transform="translate(-471.38 -467.27)"/><path class="cls-22" d="M1189.64,931.19l31.87,27,10,26.89-28.42,31.53s-9.55-53.37-16.65-64.93S1183,934.57,1189.64,931.19Z" transform="translate(-471.38 -467.27)"/><path class="cls-23" d="M2065.8,1529.85l70-176.64s170.39,115.77,198.41,262.56c-32.19,2.37-90.78,10.74-148.12,39.7C2173.46,1586.16,2065.8,1529.85,2065.8,1529.85Z" transform="translate(-471.38 -467.27)"/><path class="cls-24" d="M1916.91,1696.05s191.3,108.12,255.85,15.8c13.4-19.17,16.6-38.22,13.3-56.38,57.34-29,115.93-37.33,148.12-39.7,8.45,44.25,4,91.31-22,138.88-113.07,206.83-420.57-11.43-420.57-11.43Z" transform="translate(-471.38 -467.27)"/><path class="cls-25" d="M1939.89,1832.83l-104.41-364.61a10.62,10.62,0,0,0-9-7.66c-18.91-2.2-73.73-8.4-137-13.75-76.24-6.45-164.76-11.67-217.66-7.23a10.66,10.66,0,0,0-8.72,15.35c30.08,60.86,153.82,308.43,215.79,389.53a10.68,10.68,0,0,0,8.6,4.23l242.24-2.26A10.66,10.66,0,0,0,1939.89,1832.83Z" transform="translate(-471.38 -467.27)"/><path class="cls-26" d="M1678.65,1415.2l-75.7-12.61a5.43,5.43,0,0,0-6,7.06l7.49,22.7a5.44,5.44,0,0,0,4.44,3.69l72.84,9.73a5.44,5.44,0,0,0,6-6.63l-4.64-19.82A5.42,5.42,0,0,0,1678.65,1415.2Z" transform="translate(-471.38 -467.27)"/><path class="cls-3" d="M1735.33,1479.28l-6.24-32.48a7.51,7.51,0,0,0-6.62-6l-152.88-15.52a7.51,7.51,0,0,0-8.06,9.22l9.72,40.48a7.49,7.49,0,0,0,6.92,5.74l149.4,7.53A7.52,7.52,0,0,0,1735.33,1479.28Z" transform="translate(-471.38 -467.27)"/><path class="cls-27" d="M1914.67,1744.74s14.54-59.8,8.67-81-17.23-48.5-55.12-42.44-82.58,22-82.58,22,2.26,27.63,31,18.72l-17.85,13.81s2.55,22.13,26.87,10.31l-16.61,18.32s10.45,18.18,28.35,6.52S1863.92,1751.94,1914.67,1744.74Z" transform="translate(-471.38 -467.27)"/><path class="cls-28" d="M1936.85,1157.22l58.05,167.86a6.05,6.05,0,0,1-2.76,7.28c-15.82,8.75-72.83,34-141.52-9.52a28.48,28.48,0,0,1-13.11-20.34l-18.8-145.28Z" transform="translate(-471.38 -467.27)"/><path class="cls-29" d="M1810.56,1001.78s-63.74,120-55.57,168.45,87.17,45,156.14,5.62l48.2-129.55Z" transform="translate(-471.38 -467.27)"/><path class="cls-30" d="M1908.08,1112.23a4.94,4.94,0,0,1-2.15-7.24c5.1-7.8,14.68-23.72,17.73-37.65,0,0,11.46-7.34-29.16-17.06s-101.2-24.81-113.93-59.39c-12.42-33.71,20.2-118.49,72.24-50.94a4.94,4.94,0,0,0,7.83.06c8.53-11.11,31-34.15,62.1-20.18,29.14,13.07,32.42,34.43,32,45.19a4.91,4.91,0,0,0,5.82,5c14.74-2.81,50.09-5.22,66.59,31,13.59,29.88,4.76,46.79-3.29,55.06a4.92,4.92,0,0,0,2.11,8.18c9.68,3,22.19,11.18,20.94,33.86-1.74,31.36-36.8,28.6-46.78,27.17a4.94,4.94,0,0,0-4.39,1.55c-8.56,9.47-47.13,49.69-88.86,54.54a5,5,0,0,1-5.24-6.59l18.07-52.51a5,5,0,0,0-2.69-6.16Z" transform="translate(-471.38 -467.27)"/><path class="cls-31" d="M1900.82,1119.68s45.38-31.14,48.7-4.91-40.87,38-62.75,28.2Z" transform="translate(-471.38 -467.27)"/><path class="cls-32" d="M988.24,2174.53c-64.92,3.92-67.07-71.51-63.08-113.67a15.1,15.1,0,0,0-21.58-15L807.15,2092s-4.53,111.2,106.59,150.67c28.12,10,53.81,10.42,76.53,5.54A121.66,121.66,0,0,1,988.24,2174.53Z" transform="translate(-471.38 -467.27)"/><path class="cls-33" d="M1158.52,2132.19c-32.82-22.83-70,0-70,0-43.87,28.69-76.34,40.9-100.28,42.34a121.66,121.66,0,0,0,2,73.68c49.16-10.57,84.33-46.14,99.61-64.39a15.86,15.86,0,0,1,22-2.41c6.83,5.4,13.47,12.78,12.26,20.56-2.37,15.34,15.43,20.21,16.77,14.65s-6.09-38.53-6.09-38.53,35.59,35.79,49.48,49.54,31.37,0,31.37,0S1191.33,2155,1158.52,2132.19Z" transform="translate(-471.38 -467.27)"/><path class="cls-34" d="M1039.19,2264.24l26.48-3.57,80-8.11a36.37,36.37,0,0,1,26.74,8.09l61.49,50.56-184.56-23.8Z" transform="translate(-471.38 -467.27)"/><path class="cls-35" d="M1138.71,3163c-65.42,0-94.37-5.61-107.31-10.73a24.84,24.84,0,0,0,24.18,19.23H1287a11.26,11.26,0,0,0,10.85-14.22C1271.48,3159.37,1215.45,3163,1138.71,3163Z" transform="translate(-471.38 -467.27)"/><path class="cls-36" d="M1297.86,3157.25a11,11,0,0,0-1.89-3.94c-17.63-22.51-53-57.85-101.22-57.18-70.57,1-95.18,8.65-150,.43l-12.94,42.89a24.67,24.67,0,0,0-.39,12.79c12.94,5.12,41.89,10.73,107.31,10.73C1215.45,3163,1271.48,3159.37,1297.86,3157.25Z" transform="translate(-471.38 -467.27)"/><path class="cls-37" d="M1060.61,3050.35l-15.88,54s35.18,16,66.13,3.16l6.07-46.79Z" transform="translate(-471.38 -467.27)"/><path class="cls-38" d="M1540.29,3129c-51,41-77.06,54.75-90.34,58.88a24.8,24.8,0,0,0,30.83-.22l180.41-145a11.23,11.23,0,0,0-.4-17.83C1641.54,3043,1600.11,3080.89,1540.29,3129Z" transform="translate(-471.38 -467.27)"/><path class="cls-39" d="M1660.79,3024.83a11.06,11.06,0,0,0-3.94-1.87c-27.77-6.42-77.41-11.66-114.54,19-54.4,45-68.8,66.33-116.68,94.3l16.65,41.37a24.35,24.35,0,0,0,7.67,10.17c13.28-4.13,39.34-17.91,90.34-58.88C1600.11,3080.89,1641.54,3043,1660.79,3024.83Z" transform="translate(-471.38 -467.27)"/><path class="cls-40" d="M720.89,2435s391.67,32,472,69.81-65.57,567.94-65.57,567.94-21.88,10.53-70.55-4.6c0,0,49.91-391.21,12.77-476l-424.07-69.36Z" transform="translate(-471.38 -467.27)"/><path class="cls-41" d="M1386.72,3061.83c3.63,3.32,38.91,74.47,38.91,74.47s39.28-8.5,47.29-33.35l-35.34-64.22Z" transform="translate(-471.38 -467.27)"/><path class="cls-42" d="M485,2431.71s-12.76,30.71-12.24,71.53c.72,56.44,46.1,102.24,102.48,105.05l463,21.12a22.2,22.2,0,0,1,20.5,16.69c10.88,42.08,64.06,171.32,324,429.2a21,21,0,0,0,25.93,2.83l37-23.38a8.52,8.52,0,0,0,2.81-11.51l-269.59-460.37a104.39,104.39,0,0,0-63.4-47L711.7,2380.57Z" transform="translate(-471.38 -467.27)"/><path class="cls-43" d="M814.62,1660.63s-34.07,94.82-76.73,145.24l112.89,39.81s7.52-95.48,56-131.38Z" transform="translate(-471.38 -467.27)"/><path class="cls-44" d="M478.72,2451.2s128.35,8.89,240.79-41.3c0,0,27.43-182.27,78.76-252.42,0,0-20,271.37,301,136-8.83-4.5-8.85-7.2-11.32-15.73-1-3.64.75-21.19-3-20.93-41.63,2.8-218.63,34.29-160.13-202.57,23.08-93.48-38.87-207-95-231.61-35-15.34-56.21-26.28-67.24-32.33a16.31,16.31,0,0,0-18.61,2C696.09,1834.11,474,2049.62,478.72,2451.2Z" transform="translate(-471.38 -467.27)"/><path class="cls-45" d="M899.89,1544.18S939.36,1629,943,1673.88s14.07,73.87-37.72,84.24-96.27-14.44-121.13-58.66c0,0-38.94-68.11-31.3-96.6S899.89,1544.18,899.89,1544.18Z" transform="translate(-471.38 -467.27)"/><path class="cls-46" d="M801.11,1666.79l6.58-.16s-28.5-54.89-4.94-65.26,117.39-32,136.89-65.94c18.8-32.75.26-74-26.21-85a3.49,3.49,0,0,0-4.41,1.76l-2.06,4.15a3.54,3.54,0,0,1-6.54-.5,3.51,3.51,0,0,0-6.35-.81c-6,10.16-22.44,26.86-67.46,36.34C762.73,1504.85,721,1531.9,721,1576.28a3.54,3.54,0,0,1-5.39,3c-4.81-2.77-12.43-3.94-22.35,4.84-17.25,15.26-9.07,53.52,30.36,84.17a3.52,3.52,0,0,1,0,5.67c-6.89,4.73-17.05,15.84,10.36,29.62,28,14.1,44.39,12.07,50.53,10.34a3.54,3.54,0,0,0,2.58-3.73L783.66,1671a3.54,3.54,0,0,1,3.43-3.84Z" transform="translate(-471.38 -467.27)"/><path class="cls-47" d="M802.93,1675s-15.61-54.39-39.77-38.43,14.28,61,34.07,62.58Z" transform="translate(-471.38 -467.27)"/><g class="cls-48"><path class="cls-3" d="M2475.7,837a8.21,8.21,0,0,1-8.15-7.36c-1-9.22-1.55-18.62-1.72-27.94a8.2,8.2,0,0,1,8.05-8.36h.16a8.21,8.21,0,0,1,8.2,8.05c.17,8.85.72,17.78,1.64,26.54a8.21,8.21,0,0,1-7.31,9A8.46,8.46,0,0,1,2475.7,837Zm.53-71.51a8,8,0,0,1-1-.06,8.21,8.21,0,0,1-7.19-9.12c1.1-9.24,2.6-18.53,4.46-27.61a8.21,8.21,0,0,1,16.08,3.3c-1.77,8.63-3.2,17.46-4.24,26.24A8.21,8.21,0,0,1,2476.23,765.45Zm16.26-69.61a8.22,8.22,0,0,1-7.73-11c3.12-8.75,6.66-17.48,10.52-25.94a8.21,8.21,0,1,1,14.93,6.82c-3.67,8-7,16.31-10,24.63A8.22,8.22,0,0,1,2492.49,695.84Zm31.43-64.25A8.21,8.21,0,0,1,2517,619c5-7.84,10.4-15.56,16-22.94a8.21,8.21,0,0,1,13,10c-5.36,7-10.49,14.34-15.24,21.79A8.22,8.22,0,0,1,2523.92,631.59Zm45-55.62a8.2,8.2,0,0,1-5.77-14c6.6-6.52,13.57-12.85,20.72-18.81a8.21,8.21,0,1,1,10.51,12.61c-6.8,5.66-13.42,11.68-19.69,17.87A8.2,8.2,0,0,1,2568.88,576ZM2625,531.69a8.21,8.21,0,0,1-4.34-15.18c7.89-4.91,16.09-9.54,24.37-13.76a8.21,8.21,0,0,1,7.45,14.63c-7.87,4-15.66,8.41-23.15,13.07A8.17,8.17,0,0,1,2625,531.69Zm300.78-19.55a8.19,8.19,0,0,1-3.39-.73c-8-3.65-16.32-7-24.66-10a8.21,8.21,0,0,1,5.48-15.47c8.78,3.1,17.52,6.63,26,10.47a8.21,8.21,0,0,1-3.4,15.68ZM2689.54,501a8.21,8.21,0,0,1-2.68-16c8.79-3,17.81-5.71,26.82-8a8.21,8.21,0,0,1,4,15.92c-8.56,2.15-17.12,4.7-25.47,7.57A8,8,0,0,1,2689.54,501Zm168.24-10.87a8.36,8.36,0,0,1-1.64-.16c-8.65-1.76-17.48-3.17-26.27-4.19a8.21,8.21,0,0,1,1.9-16.31c9.24,1.08,18.54,2.56,27.64,4.41a8.21,8.21,0,0,1-1.63,16.25Zm-98.48-4.67a8.21,8.21,0,0,1-.86-16.37c9.23-1,18.63-1.58,27.93-1.78h.17a8.21,8.21,0,0,1,.17,16.41c-8.83.19-17.76.76-26.53,1.7A8.64,8.64,0,0,1,2759.3,485.42Z" transform="translate(-471.38 -467.27)"/><path class="cls-3" d="M2975.91,540.64a8.19,8.19,0,0,1-4.68-1.47c-3.48-2.42-7.06-4.8-10.65-7.09a8.21,8.21,0,1,1,8.82-13.84c3.78,2.4,7.54,4.91,11.2,7.45a8.21,8.21,0,0,1-4.69,14.95Z" transform="translate(-471.38 -467.27)"/></g><g class="cls-48"><path class="cls-3" d="M3109.25,752.4a8.2,8.2,0,0,1-8.09-6.91c-.67-4.17-1.44-8.41-2.28-12.58a8.2,8.2,0,1,1,16.08-3.26c.89,4.39,1.7,8.85,2.41,13.25a8.19,8.19,0,0,1-8.12,9.5Z" transform="translate(-471.38 -467.27)"/><path class="cls-3" d="M2794,1122.91q-5.67,0-11.37-.19a8.21,8.21,0,0,1,.55-16.41c8.78.3,17.55.23,26.17-.19a8.21,8.21,0,0,1,.81,16.4C2804.77,1122.78,2799.34,1122.91,2794,1122.91Zm-54.48-4.6a8.36,8.36,0,0,1-1.4-.12c-9-1.55-18.09-3.49-26.93-5.78a8.21,8.21,0,0,1,4.11-15.89c8.4,2.18,17,4,25.59,5.49a8.21,8.21,0,0,1-1.37,16.3Zm113.53-.9a8.21,8.21,0,0,1-1.51-16.27c8.52-1.6,17.09-3.6,25.47-5.92a8.21,8.21,0,1,1,4.39,15.82c-8.82,2.45-17.85,4.54-26.82,6.23A8.07,8.07,0,0,1,2853,1117.41Zm-181.19-18.53a8.19,8.19,0,0,1-3.12-.62c-8.46-3.49-16.87-7.38-25-11.56a8.21,8.21,0,1,1,7.51-14.6c7.72,4,15.71,7.67,23.74,11a8.21,8.21,0,0,1-3.13,15.8Zm248.44-2.05a8.21,8.21,0,0,1-3.26-15.75c8-3.43,15.87-7.26,23.54-11.37a8.21,8.21,0,1,1,7.76,14.46c-8.07,4.33-16.41,8.36-24.79,12A8.17,8.17,0,0,1,2920.25,1096.83Zm61.1-34.84a8.21,8.21,0,0,1-4.83-14.85c7-5.11,13.93-10.58,20.51-16.25a8.21,8.21,0,0,1,10.72,12.43c-6.92,6-14.18,11.72-21.58,17.1A8.18,8.18,0,0,1,2981.35,1062Zm52.05-47.34a8.2,8.2,0,0,1-6.15-13.64c5.76-6.52,11.3-13.36,16.48-20.32a8.21,8.21,0,1,1,13.17,9.79c-5.45,7.33-11.28,14.53-17.34,21.39A8.18,8.18,0,0,1,3033.4,1014.65Zm40.49-57.56a8.2,8.2,0,0,1-7.19-12.16c4.2-7.62,8.11-15.5,11.63-23.44a8.21,8.21,0,1,1,15,6.67c-3.71,8.35-7.83,16.66-12.24,24.68A8.19,8.19,0,0,1,3073.89,957.09ZM3100.77,892a8.24,8.24,0,0,1-7.9-10.48c2.4-8.34,4.48-16.89,6.17-25.42a8.21,8.21,0,0,1,16.11,3.2c-1.79,9-4,18-6.5,26.76A8.23,8.23,0,0,1,3100.77,892Zm11.91-69.34h-.51a8.21,8.21,0,0,1-7.69-8.69c.39-6.39.59-12.86.59-19.25q0-3.47-.08-6.92a8.21,8.21,0,0,1,8-8.39,8.11,8.11,0,0,1,8.38,8c.06,2.42.08,4.84.08,7.28,0,6.71-.2,13.53-.61,20.25A8.21,8.21,0,0,1,3112.68,822.69Z" transform="translate(-471.38 -467.27)"/><path class="cls-3" d="M2609.94,1064.91a8.14,8.14,0,0,1-4.71-1.49c-3.64-2.55-7.29-5.23-10.85-8a8.21,8.21,0,0,1,10-13c3.39,2.6,6.86,5.14,10.31,7.57a8.21,8.21,0,0,1-4.73,14.92Z" transform="translate(-471.38 -467.27)"/></g><path class="cls-3" d="M2621,969.71a3.84,3.84,0,0,0,4.3,1.17l43.82-16.11a203.36,203.36,0,0,0,58,31.24l10.69,45.42a3.82,3.82,0,0,0,3.34,2.94l55.73,5.65a3.86,3.86,0,0,0,3.87-2.21l19.58-42.36a203.37,203.37,0,0,0,63.1-19l39.7,24.57a3.84,3.84,0,0,0,4.45-.29L2971,965.35a3.83,3.83,0,0,0,1.18-4.29l-16.12-43.83a203.26,203.26,0,0,0,31.25-58l45.42-10.68a3.86,3.86,0,0,0,2.94-3.35l5.64-55.72a3.82,3.82,0,0,0-2.21-3.87L2996.76,766a203.36,203.36,0,0,0-19-63.11l24.58-39.7a3.86,3.86,0,0,0-.29-4.45l-35.41-43.39a3.83,3.83,0,0,0-4.3-1.17l-43.82,16.11a203.5,203.5,0,0,0-58-31.24l-10.69-45.43a3.82,3.82,0,0,0-3.35-2.93l-55.72-5.65a3.84,3.84,0,0,0-3.87,2.21l-19.58,42.35a203.38,203.38,0,0,0-63.1,19L2664.5,584a3.84,3.84,0,0,0-4.44.29l-43.39,35.41a3.85,3.85,0,0,0-1.18,4.3l16.12,43.82a203.52,203.52,0,0,0-31.25,58l-45.42,10.69a3.86,3.86,0,0,0-2.94,3.35l-5.64,55.72a3.83,3.83,0,0,0,2.2,3.87l42.36,19.58a203.25,203.25,0,0,0,19,63.11l-24.58,39.7a3.82,3.82,0,0,0,.29,4.44Z" transform="translate(-471.38 -467.27)"/><path class="cls-49" d="M2793.8,848.84a56.34,56.34,0,1,1,8.25-.61A56.39,56.39,0,0,1,2793.8,848.84Zm.13-99.48a44.29,44.29,0,0,0-6.38.47,43,43,0,1,0,6.38-.47Z" transform="translate(-471.38 -467.27)"/><path class="cls-49" d="M2795,930.15a141.25,141.25,0,0,1-14.2-.72h0c-1.5-.15-3-.33-4.49-.53a139.56,139.56,0,0,1-21.67-4.67l-.28-.09-.82-.25-1.59-.51a3.27,3.27,0,0,1-2.27-3.12,3.23,3.23,0,0,1,.16-1,3.27,3.27,0,0,1,4.13-2.11,132.09,132.09,0,0,0,144.36-43.9A131,131,0,0,0,2925.89,805a134.07,134.07,0,0,0,.68-13.55,131.87,131.87,0,0,0-263.06-13,133.21,133.21,0,0,0-.68,13.38,131.55,131.55,0,0,0,12.44,55.86,3.21,3.21,0,0,1,.32,1.4,3.29,3.29,0,0,1-6.26,1.39A138.76,138.76,0,0,1,2657,777.76c7.7-76,75.76-131.47,151.68-123.78a138.47,138.47,0,0,1,124.49,137.45,141.85,141.85,0,0,1-.72,14.23A138.45,138.45,0,0,1,2795,930.15Z" transform="translate(-471.38 -467.27)"/><g class="cls-48"><path class="cls-3" d="M2195.59,1053.27a5.07,5.07,0,0,1-4.86-3.65c-1.21-4.12-2.32-8.35-3.28-12.55a5.07,5.07,0,1,1,9.88-2.26c.92,4,2,8,3.13,12a5.08,5.08,0,0,1-3.44,6.3A5.36,5.36,0,0,1,2195.59,1053.27Z" transform="translate(-471.38 -467.27)"/><path class="cls-3" d="M2188.09,1015a5.08,5.08,0,0,1-5-4.56,221,221,0,0,1-1.13-22.27c0-1.56,0-3.13,0-4.69a5.25,5.25,0,0,1,5.17-5,5.08,5.08,0,0,1,5,5.17c0,1.5-.05,3-.05,4.49a209.36,209.36,0,0,0,1.08,21.24,5.07,5.07,0,0,1-4.53,5.56Zm1.11-52.63a5.81,5.81,0,0,1-.72,0,5.07,5.07,0,0,1-4.3-5.74,220.86,220.86,0,0,1,5.47-26.43,5.07,5.07,0,1,1,9.78,2.67,211,211,0,0,0-5.22,25.2A5.06,5.06,0,0,1,2189.2,962.37Zm13.85-50.79a5.07,5.07,0,0,1-4.69-7,220.15,220.15,0,0,1,11.81-24.28,5.07,5.07,0,1,1,8.83,5,206,206,0,0,0-11.26,23.15A5.07,5.07,0,0,1,2203.05,911.58Zm25.9-45.83a5.07,5.07,0,0,1-4.07-8.09A221.58,221.58,0,0,1,2242.27,837a5.07,5.07,0,0,1,7.34,7A208,208,0,0,0,2233,863.7,5.08,5.08,0,0,1,2229,865.75Zm36.31-38.11a5.07,5.07,0,0,1-3.21-9,221,221,0,0,1,21.86-15.8,5.07,5.07,0,1,1,5.43,8.57,210.74,210.74,0,0,0-20.86,15.07A5.09,5.09,0,0,1,2265.26,827.64Zm44.46-28.14a5.07,5.07,0,0,1-2.17-9.65,216.86,216.86,0,0,1,25.06-10,5.07,5.07,0,1,1,3.16,9.63,210.68,210.68,0,0,0-23.89,9.52A4.9,4.9,0,0,1,2309.72,799.5Zm50-16.41a5.07,5.07,0,0,1-1-10.05,219.72,219.72,0,0,1,26.75-3.53,5.07,5.07,0,0,1,.71,10.12,207.41,207.41,0,0,0-25.52,3.36A4.63,4.63,0,0,1,2359.7,783.09Zm78.71-.65a4.53,4.53,0,0,1-.89-.08,212.48,212.48,0,0,0-22.23-2.72l-3.35-.21a5.07,5.07,0,0,1,.53-10.13c1.18.07,2.36.14,3.55.23a222.31,222.31,0,0,1,23.27,2.85,5.07,5.07,0,0,1-.88,10.06Z" transform="translate(-471.38 -467.27)"/></g><g class="cls-48"><path class="cls-3" d="M2403.87,1206.91a5.07,5.07,0,0,1-.07-10.14,208.59,208.59,0,0,0,25.25-1.86,5.07,5.07,0,1,1,1.35,10,218.44,218.44,0,0,1-26.46,2Zm-25.91-1.22-.55,0a222.8,222.8,0,0,1-26.18-4.41,5.07,5.07,0,0,1,2.28-9.89,211.45,211.45,0,0,0,25,4.22,5.07,5.07,0,0,1-.53,10.11Zm77.21-5.71a5.07,5.07,0,0,1-1.29-10,211.52,211.52,0,0,0,24.06-7.91,5.07,5.07,0,0,1,3.74,9.42,221.32,221.32,0,0,1-25.22,8.29A5.26,5.26,0,0,1,2455.17,1200Zm-127.67-6a5.35,5.35,0,0,1-1.74-.3,219.94,219.94,0,0,1-24.35-10.61,5.07,5.07,0,1,1,4.61-9,210.54,210.54,0,0,0,23.22,10.11,5.07,5.07,0,0,1-1.74,9.83Zm175.76-13.14a5.07,5.07,0,0,1-2.43-9.52,208.72,208.72,0,0,0,21.44-13.45,5.07,5.07,0,1,1,5.9,8.24,218.24,218.24,0,0,1-22.48,14.11A5,5,0,0,1,2503.26,1180.85Zm42.11-30.1a5.07,5.07,0,0,1-3.43-8.81,211.59,211.59,0,0,0,17.62-18.2,5.06,5.06,0,1,1,7.69,6.59,221.47,221.47,0,0,1-18.45,19.08A5.05,5.05,0,0,1,2545.37,1150.75Zm33.69-39.33a5.07,5.07,0,0,1-4.22-7.89,206.11,206.11,0,0,0,12.73-21.89,5.07,5.07,0,0,1,9.06,4.56,218.39,218.39,0,0,1-13.35,23A5.06,5.06,0,0,1,2579.06,1111.42Z" transform="translate(-471.38 -467.27)"/><path class="cls-3" d="M2281.17,1170.32a5.07,5.07,0,0,1-2.84-.87c-3.59-2.43-7.13-5-10.51-7.57a5.07,5.07,0,1,1,6.17-8.05c3.22,2.47,6.6,4.9,10,7.22a5.07,5.07,0,0,1-2.85,9.27Z" transform="translate(-471.38 -467.27)"/></g><path class="cls-3" d="M2285.39,1104.83a2.57,2.57,0,0,0,2.87.79l29.33-10.79a136.16,136.16,0,0,0,38.82,20.91l7.15,30.39a2.56,2.56,0,0,0,2.24,2l37.29,3.78a2.58,2.58,0,0,0,2.59-1.48l13.1-28.34a136.4,136.4,0,0,0,42.23-12.7l26.56,16.45a2.59,2.59,0,0,0,3-.2l29-23.69a2.57,2.57,0,0,0,.79-2.88l-10.78-29.32a136.46,136.46,0,0,0,20.91-38.83l30.39-7.15a2.56,2.56,0,0,0,2-2.24l3.77-37.29a2.55,2.55,0,0,0-1.47-2.58l-28.35-13.11a136.05,136.05,0,0,0-12.69-42.22l16.44-26.57a2.57,2.57,0,0,0-.19-3l-23.7-29a2.55,2.55,0,0,0-2.87-.79l-29.33,10.79a135.91,135.91,0,0,0-38.82-20.91l-7.15-30.4a2.57,2.57,0,0,0-2.24-2L2399,820.67a2.56,2.56,0,0,0-2.59,1.48l-13.1,28.34a135.86,135.86,0,0,0-42.23,12.7l-26.57-16.45a2.54,2.54,0,0,0-3,.2l-29,23.69a2.58,2.58,0,0,0-.78,2.88l10.78,29.32a136.16,136.16,0,0,0-20.91,38.82l-30.39,7.16a2.56,2.56,0,0,0-2,2.24l-3.77,37.28a2.57,2.57,0,0,0,1.47,2.59l28.35,13.1a136.11,136.11,0,0,0,12.69,42.23l-16.44,26.57a2.56,2.56,0,0,0,.19,3Z" transform="translate(-471.38 -467.27)"/><path class="cls-49" d="M2401,1024.63a38.5,38.5,0,1,1,5.67-.42A38.84,38.84,0,0,1,2401,1024.63Zm.1-66.57a29,29,0,0,0-4.14.3,28.21,28.21,0,0,0,8.23,55.82h0a28.21,28.21,0,0,0-4.09-56.12Z" transform="translate(-471.38 -467.27)"/><path class="cls-49" d="M2401.68,1081.23c-3.21,0-6.44-.17-9.7-.49a96.66,96.66,0,0,1-19.07-3.91l-.83-.27a5.07,5.07,0,1,1,3.13-9.64,86,86,0,0,0,17.79,3.73h0l1,.09a84.79,84.79,0,0,0,61-18.4l.15-.12.45-.36a84.81,84.81,0,0,0,31-57.54,86.15,86.15,0,0,0,.45-8.77,85.37,85.37,0,0,0-170.31-8.43,86.58,86.58,0,0,0-.43,8.66,85,85,0,0,0,8.05,36.16,5.08,5.08,0,0,1-2.43,6.75,5.08,5.08,0,0,1-6.75-2.44,95.15,95.15,0,0,1-9-40.46q0-4.85.48-9.69a95.51,95.51,0,0,1,190.54,9.43,98.1,98.1,0,0,1-.5,9.81A95.65,95.65,0,0,1,2401.68,1081.23Z" transform="translate(-471.38 -467.27)"/><g class="cls-48"><path class="cls-3" d="M3081.14,1438.51a5.06,5.06,0,0,1-3.48,5c-4.09,1.35-8.27,2.59-12.44,3.7a5.07,5.07,0,0,1-2.59-9.81c4-1.05,8-2.23,11.86-3.52a5.07,5.07,0,0,1,6.4,3.23A4.72,4.72,0,0,1,3081.14,1438.51Z" transform="translate(-471.38 -467.27)"/><path class="cls-3" d="M3043.14,1447.27a5.08,5.08,0,0,1-4.39,5.19c-7.34,1-14.82,1.62-22.22,1.87-1.56.05-3.13.08-4.69.1a5.25,5.25,0,0,1-5.14-5,5.07,5.07,0,0,1,5-5.13c1.5,0,3,0,4.48-.1a208.71,208.71,0,0,0,21.2-1.78,5.08,5.08,0,0,1,5.71,4.34C3043.12,1446.93,3043.13,1447.1,3043.14,1447.27Zm-52.64.62a5.93,5.93,0,0,1,0,.73,5.08,5.08,0,0,1-5.6,4.49,222.52,222.52,0,0,1-26.59-4.6,5.07,5.07,0,0,1,2.34-9.87A210.68,210.68,0,0,0,2986,1443,5.06,5.06,0,0,1,2990.5,1447.89Zm-51.21-12.16a5.07,5.07,0,0,1-6.84,4.91,217.42,217.42,0,0,1-24.66-11,5.07,5.07,0,1,1,4.69-9,210.37,210.37,0,0,0,23.52,10.49A5.08,5.08,0,0,1,2939.29,1435.73Zm-46.66-24.38a5.07,5.07,0,0,1-8,4.33,218.09,218.09,0,0,1-21.21-16.7,5.07,5.07,0,1,1,6.75-7.56,207.63,207.63,0,0,0,20.23,15.92A5.07,5.07,0,0,1,2892.63,1411.35Zm-39.29-35a5.07,5.07,0,0,1-8.88,3.51,223.55,223.55,0,0,1-16.51-21.33,5.07,5.07,0,1,1,8.38-5.71,210.67,210.67,0,0,0,15.76,20.36A5.06,5.06,0,0,1,2853.34,1376.31Zm-29.59-43.51a5.07,5.07,0,0,1-9.57,2.49,216.86,216.86,0,0,1-10.81-24.72,5.07,5.07,0,1,1,9.52-3.47,207.75,207.75,0,0,0,10.31,23.56A5,5,0,0,1,2823.75,1332.8Zm-18.05-49.4a5.07,5.07,0,0,1-10,1.3,220.41,220.41,0,0,1-4.42-26.63,5.07,5.07,0,0,1,10.09-1,207.79,207.79,0,0,0,4.21,25.39A5.58,5.58,0,0,1,2805.7,1283.4Zm-3.23-78.65a5.37,5.37,0,0,1,0,.89,211.34,211.34,0,0,0-2,22.3c0,1.14-.08,2.25-.1,3.36a5.07,5.07,0,0,1-10.14-.19c0-1.19.06-2.37.11-3.56a218.46,218.46,0,0,1,2.09-23.35,5.07,5.07,0,0,1,10.08.55Z" transform="translate(-471.38 -467.27)"/></g><g class="cls-48"><path class="cls-3" d="M3227.84,1225.29a5.07,5.07,0,0,1-10.13.4,209.76,209.76,0,0,0-2.69-25.17,5.07,5.07,0,1,1,10-1.68,221.76,221.76,0,0,1,2.82,26.38Zm-.37,25.94a3.39,3.39,0,0,1,0,.55,219.93,219.93,0,0,1-3.55,26.31,5.07,5.07,0,0,1-9.95-2,209.9,209.9,0,0,0,3.39-25.1,5.07,5.07,0,0,1,10.12.2Zm-8.24-77a5.07,5.07,0,0,1-9.93,1.62,208.62,208.62,0,0,0-8.7-23.79,5.07,5.07,0,0,1,9.3-4A217.8,217.8,0,0,1,3219,1173,5.21,5.21,0,0,1,3219.23,1174.25ZM3217.45,1302a5,5,0,0,1-.25,1.75,216.79,216.79,0,0,1-9.81,24.69,5.07,5.07,0,0,1-9.17-4.31,207.26,207.26,0,0,0,9.34-23.54,5.07,5.07,0,0,1,9.89,1.41Zm-18.92-175.23a5.07,5.07,0,0,1-9.44,2.75,208.9,208.9,0,0,0-14.15-21,5.07,5.07,0,0,1,8-6.17,222.94,222.94,0,0,1,14.84,22A5.19,5.19,0,0,1,3198.53,1126.81Zm-31.48-41.09a5.07,5.07,0,0,1-8.69,3.71,212.46,212.46,0,0,0-18.77-17,5.07,5.07,0,0,1,6.34-7.91,222.51,222.51,0,0,1,19.68,17.82A5,5,0,0,1,3167.05,1085.72Zm-40.42-32.38a5,5,0,0,1-.76,2.83,5.07,5.07,0,0,1-7,1.65,207.23,207.23,0,0,0-22.3-12,5.07,5.07,0,0,1,4.26-9.2,219.35,219.35,0,0,1,23.39,12.58A5.08,5.08,0,0,1,3126.63,1053.34Z" transform="translate(-471.38 -467.27)"/><path class="cls-3" d="M3195.31,1349.13a5,5,0,0,1-.77,2.86c-2.31,3.67-4.75,7.29-7.23,10.76a5.07,5.07,0,1,1-8.25-5.9c2.37-3.3,4.69-6.76,6.9-10.26a5.06,5.06,0,0,1,9.35,2.54Z" transform="translate(-471.38 -467.27)"/></g><path class="cls-3" d="M3129.72,1347.07a2.58,2.58,0,0,0,.69-2.9l-11.74-29a136.34,136.34,0,0,0,19.61-39.49l30.15-8.15a2.59,2.59,0,0,0,1.89-2.3l2.55-37.4a2.56,2.56,0,0,0-1.57-2.53l-28.75-12.17a136,136,0,0,0-14.09-41.78l15.57-27.1a2.57,2.57,0,0,0-.3-3l-24.63-28.24a2.55,2.55,0,0,0-2.9-.69l-29,11.74a135.87,135.87,0,0,0-39.49-19.62l-8.15-30.14a2.55,2.55,0,0,0-2.3-1.89l-37.39-2.55a2.55,2.55,0,0,0-2.54,1.56l-12.16,28.76a136.07,136.07,0,0,0-41.79,14.08l-27.09-15.56a2.57,2.57,0,0,0-3,.29l-28.24,24.64a2.56,2.56,0,0,0-.69,2.9l11.74,29a136.11,136.11,0,0,0-19.62,39.49l-30.14,8.15a2.56,2.56,0,0,0-1.89,2.31l-2.55,37.39a2.59,2.59,0,0,0,1.56,2.54l28.76,12.16a136.27,136.27,0,0,0,14.08,41.78l-15.56,27.1a2.57,2.57,0,0,0,.29,3l24.64,28.24a2.57,2.57,0,0,0,2.9.7l29-11.75a136,136,0,0,0,39.5,19.62l8.15,30.14a2.55,2.55,0,0,0,2.3,1.89l37.39,2.55a2.56,2.56,0,0,0,2.54-1.56l12.16-28.76a136.16,136.16,0,0,0,41.79-14.08l27.09,15.56a2.57,2.57,0,0,0,3-.29Z" transform="translate(-471.38 -467.27)"/><path class="cls-49" d="M3045.75,1234.21a38.37,38.37,0,0,1-31.5,38.92,38.32,38.32,0,1,1,31.5-38.92Zm-66.53,2.1a29.12,29.12,0,0,0,.44,4.12,28.21,28.21,0,0,0,55.52-10.06h0a28.21,28.21,0,0,0-56,5.94Z" transform="translate(-471.38 -467.27)"/><path class="cls-49" d="M3102.3,1231.62c.1,3.21,0,6.45-.17,9.71a95.61,95.61,0,0,1-3.28,19.18l-.24.84a5.06,5.06,0,0,1-4.7,3.67,5,5,0,0,1-1.57-.2,5.08,5.08,0,0,1-3.47-6.27,85.43,85.43,0,0,0,3.14-17.9h0l.06-1a84.62,84.62,0,0,0-7.89-41.06,85.91,85.91,0,0,0-12.5-19.28l-.13-.15-.38-.44a84.76,84.76,0,0,0-58.52-29,83.18,83.18,0,0,0-8.78-.16,85.37,85.37,0,0,0-2.82,170.49,86.55,86.55,0,0,0,8.67.15,85.32,85.32,0,0,0,35.88-9.24,5,5,0,0,1,2.13-.55,5.07,5.07,0,0,1,2.47,9.58,95.51,95.51,0,1,1,52.1-88.33Z" transform="translate(-471.38 -467.27)"/><rect class="cls-3" x="2436.92" y="2267.12" width="41.74" height="451.38"/><path class="cls-3" d="M2277.45,2683.53h360.68a2.44,2.44,0,0,1,2.44,2.44v41.23a0,0,0,0,1,0,0H2275a0,0,0,0,1,0,0V2686A2.44,2.44,0,0,1,2277.45,2683.53Z"/><rect class="cls-3" x="2235.2" y="2149.48" width="459.63" height="130.36" rx="44.89"/><rect class="cls-3" x="202.02" y="2252.78" width="41.74" height="451.38"/><path class="cls-3" d="M42.55,2669.18H403.23a2.44,2.44,0,0,1,2.44,2.44v41.23a0,0,0,0,1,0,0H40.11a0,0,0,0,1,0,0v-41.23A2.44,2.44,0,0,1,42.55,2669.18Z"/><rect class="cls-3" x="0.3" y="2135.14" width="459.63" height="130.36" rx="44.89"/><path class="cls-50" d="M2732.22,1569.8s30.86-61.1,57.78-31.73-32.15,56-55,64.11Z" transform="translate(-471.38 -467.27)"/><path class="cls-51" d="M2621,2416.92s-62,9.62-131.75,56.23a34.79,34.79,0,0,0-15.34,33.23c8.35,66.14,42.68,280.21,155.89,489.3a52.66,52.66,0,0,1,5.05,36.12l-19.67,91.53-36.47,34.2h94l62.55-169.28-26.75-8.46a50.62,50.62,0,0,1-35.34-47.38L2670,2750.82c2.68-80.91-49.61-136.73-49.61-136.73l150-7.3Z" transform="translate(-471.38 -467.27)"/><path class="cls-52" d="M2542.05,3174c-8.55,11.2,92.09,26,142.94,1.48,0,0,70.49-122.63,70.49-185.78,0,0-5.6-12.87-47-9.95,0,0-23.66,145.21-48.65,161.47s-69.92,1.65-69.92,1.65S2554.68,3157.52,2542.05,3174Z" transform="translate(-471.38 -467.27)"/><path class="cls-53" d="M2751.46,2616.75c-.8-1.38-161.54-19.33-161.54-19.33s5.26,48.88-11.18,116.16-252.45,358.77-252.45,358.77L2351,3150.8c-76.51,26.65-151.78,30.91-225.84,13.58l153.36-92S2422.09,2583.24,2510,2496l161.12-55.74Z" transform="translate(-471.38 -467.27)"/><path class="cls-54" d="M3112,2332.15s92.61,137.75,100.21,200.59-25.37,88.36-122.54,92.57-356.59,4.15-356.59,4.15L2533.61,2459a16.75,16.75,0,0,1,5.22-28.52c47.84-17.14,144.93-52,176.1-64.13C2756.88,2350.1,3112,2332.15,3112,2332.15Z" transform="translate(-471.38 -467.27)"/><path class="cls-55" d="M2341.69,3124.38s26.64,25.8,8.64,54.51c0,0-211,37.41-268.35,20.44,0,0,11.9-27.16,76.42-58.07l-4.76,3.66a7.7,7.7,0,0,0,5.09,13.82C2201.25,3156.32,2289.24,3148.53,2341.69,3124.38Z" transform="translate(-471.38 -467.27)"/><path class="cls-56" d="M2985.33,2056.38c59.29,64,119.28,164.65,119.28,164.65l101.4-31.57c-90.29-252.62-320.07-401.76-320.07-401.76s-116.78-.81-122.59,18.68c-3.8,12.71-45.39,94.38-68.8,173.23a139.37,139.37,0,0,0,23.6,125.42c44.18,56.61,127.58,138,149.8,159.47l20.22,58.91a95,95,0,0,0,102.52,63.3l143.81-19.36c-15.43-42.2-31.45-81.92-48-119.47Z" transform="translate(-471.38 -467.27)"/><path class="cls-57" d="M2733.63,1690c1.22,4,47.29,112.57,49.68,114.67s66.84,5.56,97.18-15.18l-65-175.83Z" transform="translate(-471.38 -467.27)"/><path class="cls-58" d="M2731.89,1487.86s-59.95,17.09-109.31,95.59-25.48,120.77,10.07,130.72,89.85,16.11,154.1-30.44S2809.46,1468.45,2731.89,1487.86Z" transform="translate(-471.38 -467.27)"/><path class="cls-59" d="M2749,1630.51s52-112-50.55-122.87l-25.27,15.49s-12.42-72.25,52.25-97.2,172.55,44.91,191.18,130.66-77.24,153.28-94.17,141.63c-6.65-4.57-29.67-51.14-29.67-51.14s2.69,7-5.18-13.83-32.47,1.17-32.47,1.17Z" transform="translate(-471.38 -467.27)"/><path class="cls-60" d="M2911.22,1642.82c-13.28-13.53-4.7-36.42,14-39.37,60.45-9.52,152.64,0,191.56,129.32,43.84,145.73,72.34,218.58,101.5,231.32,19.15,8.38,20.42,34.94,1.36,43.53-14.08,6.35-34.26,8.62-63.15,2.31C2933.65,1961.26,2989.12,1722.16,2911.22,1642.82Z" transform="translate(-471.38 -467.27)"/><path class="cls-61" d="M2681.75,2257.27l72.86-70.22,100.79,42.58s100.32,15.54,157.74,0l57.42-15.55,129.75-40.39,20.38,57.59a34.69,34.69,0,0,1-12.67,39.84c-11.23,8-24.39,16.74-32.77,20.41-17.09,7.48-421.22-5.17-421.22-5.17Z" transform="translate(-471.38 -467.27)"/><path class="cls-62" d="M2953.19,2321.59l-.9,0-391.54-.43a17.53,17.53,0,0,1,0-35l391.54.43a17.53,17.53,0,0,1,.87,35Z" transform="translate(-471.38 -467.27)"/><path class="cls-63" d="M2208.77,1966.1h326.08a62.15,62.15,0,0,1,56.21,35.64l150.74,319.64H2336.58a37.77,37.77,0,0,1-35.13-23.89l-116.9-295.78A26,26,0,0,1,2208.77,1966.1Z" transform="translate(-471.38 -467.27)"/><path class="cls-64" d="M2438.49,2130c7.07,22,1.85,43.27-11.66,47.62s-30.18-9.93-37.24-31.88-1.85-43.27,11.66-47.62S2431.43,2108,2438.49,2130Z" transform="translate(-471.38 -467.27)"/><path class="cls-26" d="M3006.08,2334.29a17.85,17.85,0,0,0-4.82-16.33,24.43,24.43,0,0,0-17.64-7.19H670.82c-9,0-17.34,4-22.17,10.49a20.12,20.12,0,0,0-1.73,21.8L672,2389.93c5.74,10.74,18.17,17.61,31.86,17.61h2263.9c12.73,0,23.67-7.8,26.09-18.6Z" transform="translate(-471.38 -467.27)"/><path class="cls-26" d="M776.23,3219.19a34.28,34.28,0,0,1-9.76-1.4c-12.53-3.73-18.33-13.8-12.93-22.48L1271.8,2361c5.39-8.68,19.91-12.68,32.46-8.95s18.33,13.8,12.94,22.48L798.94,3208.84C794.92,3215.31,785.8,3219.19,776.23,3219.19Z" transform="translate(-471.38 -467.27)"/><path class="cls-26" d="M1360.07,3219.19c-9.58,0-18.69-3.88-22.72-10.35L819.1,2374.48c-5.4-8.68.39-18.75,12.93-22.48s27.07.27,32.47,8.95l518.25,834.36c5.4,8.68-.39,18.75-12.93,22.48A34.21,34.21,0,0,1,1360.07,3219.19Z" transform="translate(-471.38 -467.27)"/><path class="cls-26" d="M2256.71,3228.56a38.54,38.54,0,0,1-10.32-1.39c-13.27-3.74-19.39-13.81-13.69-22.49l548.41-834.35c5.71-8.68,21.07-12.69,34.35-9s19.4,13.8,13.69,22.48l-548.41,834.36C2276.49,3224.68,2266.84,3228.56,2256.71,3228.56Z" transform="translate(-471.38 -467.27)"/><path class="cls-26" d="M2874.51,3228.56c-10.13,0-19.78-3.87-24-10.35l-548.41-834.36c-5.71-8.68.42-18.75,13.69-22.48s28.64.27,34.35,9l548.41,834.35c5.7,8.68-.43,18.75-13.69,22.49A38.54,38.54,0,0,1,2874.51,3228.56Z" transform="translate(-471.38 -467.27)"/><path class="cls-65" d="M973.72,2316.81l.9,0,391.53-.43a17.53,17.53,0,1,0,0-35.05l-391.54.43a17.53,17.53,0,0,0-.86,35Z" transform="translate(-471.38 -467.27)"/><path class="cls-66" d="M1718.13,1961.32H1392.05a62.17,62.17,0,0,0-56.21,35.63L1185.1,2316.6h405.23a37.75,37.75,0,0,0,35.12-23.89l116.9-295.78A26,26,0,0,0,1718.13,1961.32Z" transform="translate(-471.38 -467.27)"/><path class="cls-67" d="M1488.41,2125.21c-7.07,21.95-1.85,43.27,11.66,47.62s30.18-9.93,37.24-31.88,1.85-43.27-11.65-47.62S1495.47,2103.25,1488.41,2125.21Z" transform="translate(-471.38 -467.27)"/></g></svg>