<svg id="Camada_1" data-name="Camada 1" xmlns="http://www.w3.org/2000/svg" viewBox="0 0 884.09 367.16"><defs><style>.cls-1{fill:#fafafa;}.cls-2{fill:#7f4a36;}.cls-3{fill:#643929;}.cls-4{fill:#332e46;}.cls-5{fill:#8056a5;}.cls-6{fill:#3f3759;}.cls-7{fill:#fbfbfb;}.cls-8{fill:#c45451;}.cls-9{fill:#8080bc;}.cls-10{fill:#9795df;}.cls-11{fill:#634357;}.cls-12{fill:#773f31;}.cls-13{fill:#472e3e;}.cls-14{fill:#c6675a;}.cls-15{fill:#5d3025;}.cls-16{fill:#c2c2ec;}.cls-17{fill:#804a37;}.cls-18{fill:#a4a4c7;}.cls-19{fill:#f89bdd;}.cls-20{fill:#d2816a;}.cls-21{fill:#fcc7e3;}.cls-22{fill:#c67d65;}.cls-23{fill:#251f20;}.cls-24{fill:#0e2236;}.cls-25{fill:#172c41;}.cls-26{fill:#3e3854;}.cls-27{fill:#f3bab5;}.cls-28{fill:#2c2d38;}.cls-29{fill:#c39591;}</style></defs><path class="cls-1" d="M752.88,41.73a43.84,43.84,0,0,1-14.48-11.8,43.15,43.15,0,0,0-4-4.93c1.61-3.23,2.75-6.77,1.32-10.32-2.48-6.18-8.21-9.45-14.76-7.4s-8.91,8-7.51,14.35a11.59,11.59,0,0,0,.6,1.53,42.74,42.74,0,0,0-7.46,3.76,21.72,21.72,0,0,0-9.47,12.38c-1.39,5-.07,8.68,5.05,8.71,1.69.66,2.88.15,4.49-.41a43,43,0,0,1,5-1.57c7.28-1.5,10.33.16,14.9,5.88,1.6,2,2.33,2.1,3.88-.06s3.07-2.2,4.87-.05c1.23,1.47,1.76,3.42,2.57,5.34.55,1.33.83,2.94,2.76,2.73,2.82-1.75,5.81-3.39,8.55-5.28a17.83,17.83,0,0,0,5.82-5.87C757,45,756.68,43.74,752.88,41.73Z"/><path class="cls-2" d="M736.77,44.42c-8.63-1.25-6.23,8.1-8.54,6.76-3.64-2.1-5.88-7.55-7.49-11-1.14-2.43-4.9.2-7.23-1.78-4.12-.08-8.41,6-13.23,6.74a40.39,40.39,0,0,1,3.77,7.77,3.77,3.77,0,0,0-.59.32c-3,2.43-4.05,5.82-2.17,9.28,1.47,2.7,4.05,3.5,6.88,3.47.61,1.07.74,1.55,1.52,2.74,1.26,2,3.17,5.26,5.23,6.52,3.83,2.34,7.4,1.82,11.42.67.56.14,3,.46,3.32,0s-1.28-.69-.92-.84a2.51,2.51,0,0,1,2.06,1c.92,1.12,2.54,2.53,3.72,3.72a17.33,17.33,0,0,1,3.52,4.9,46.9,46.9,0,0,0,4.23-16.07,4.17,4.17,0,0,0,.06-.89c0-.25,0,0,0,0h0c-2-2-2.7-5.53-3.66-8.07-1.65-2.76,2-4.71,3.19-7.27C742.15,48.7,740.61,45,736.77,44.42Z"/><path class="cls-1" d="M716.32,46.39c.59-.52,6.13.55,4,1.36C719.62,47.29,715.23,47.34,716.32,46.39Z"/><path d="M734.61,47.06a4.32,4.32,0,0,1,2.28-.47c.32,0,.76.13.72.57s-.43.33-.77.33a3,3,0,0,0-3.28,2.43c-.11.47-.11.65.54.53a4.11,4.11,0,0,1,3.45.9c.26.21.63.48.41.86s-.58.07-.87-.11a3.66,3.66,0,0,0-2.19-.79,1.43,1.43,0,0,0-1.54,1.42c0,.35-.07.76-.48.74s-.42-.43-.43-.74C732.42,50.43,732.66,48.49,734.61,47.06Z"/><path class="cls-1" d="M705.07,53.12a.7.7,0,0,1-.12-.54c.29-1.09,1.56-2.7,2.72-1.94.3.2-.11.45-.4.54A2.27,2.27,0,0,0,705.71,53C705.67,53.25,705.15,53.2,705.07,53.12Z"/><path d="M712.27,54.54c.17,1,.44,2,.57,3,.06.4.24.86.28,1.21.1.88.39.71,1,.53s1.08-.48,1.65-.19c.1.06.22.28.13.34a5.61,5.61,0,0,1-3.1.85c-.25,0-.38-.24-.41-.47-.27-1.65-.52-3.3-.76-5Z"/><path class="cls-3" d="M726.34,75.89a12.22,12.22,0,0,0,4.11-3.23A14.07,14.07,0,0,0,733,61.93a14.94,14.94,0,0,1,3.12,7.17,13.45,13.45,0,0,1-2.5,9.27C731.12,77.61,728.71,76.79,726.34,75.89Z"/><path d="M726.35,76a23.56,23.56,0,0,0,2.81-2.85,23,23,0,0,0,2-3.45A24.36,24.36,0,0,0,733,61.92,14.5,14.5,0,0,1,733,66a14.06,14.06,0,0,1-1.1,4,15.57,15.57,0,0,1-2.23,3.51A11.93,11.93,0,0,1,726.35,76Z"/><path class="cls-4" d="M729.21,138c-.34.78-1.06,2.34-1.29,3.07-1,3.44-1.69,2.56-3.32.17.2-1.36-.44-2.82-1.88-2.3C719,140.28,717.91,138,717,135c-1.45-4.86-.84-7.1,4.08-8.52a35.25,35.25,0,0,0,4.54-1.62c4.49-2,6.76-1,7.94,4,.88,3.72.32,6.29-3.75,7.65C729.59,136.58,729.37,137.61,729.21,138Z"/><path class="cls-4" d="M730,159c1.56-1.11,2.72-1.84,4.63-1.24.4,1.33.75,2.6,2.43,2.21,1.33-.32,3-2.62,4.1-.59,1.63,3.16,2.19,7,3.16,10.43.26.94-.44,1.31-1.14,1.54-4.27,1.38-8.32,3-12.66,4.17-1.37.37-1.92.09-2.34-1.53-1.31-5.1-3.91-7.94,1.82-11.26C731.13,162.08,730.58,160,730,159Z"/><path class="cls-2" d="M752.31,135c-5.87,1-5.87,7.09-11.42,7a4.36,4.36,0,0,1-2.64-1.31,11.33,11.33,0,0,0-8.92-2.71c-2.16.37-2.67,2.63-4.72,3.19-3.07,7.41-1.66,13.61,5.44,17.66,1.79,1,3.19-.24,4.6-1.13,3.7-1.87,7.27-3.6,11-5.48,5.56-2.83,11.48-5.53,17-8.16C761.34,140.69,755.44,134.49,752.31,135Z"/><path class="cls-5" d="M746.34,60.91c-12.63,4.7-19,23.24-19.72,35.14-.54,8.52-.64,12.3,1.74,18.37,3.78,9.63,9.86,13.76,17.91,18.88,2.36,3.28,4.61,6.85,6.85,10.27,3.15,4.81,6.3,9.49,9.25,14.46,5.09-4.61,12.76-8.78,18.39-11.46,6.49-3.07,10.72-3.51,16.54-7.09.54-.32,2.22.39,3.93-.34,0,0,2.68-1.16,4.2-5.13,2.53-6.63-3.36-47.13-37.94-67.28C760.55,62.7,753.47,58.25,746.34,60.91Z"/><path class="cls-6" d="M805.43,134c-2.91,1.26-7.26,3.13-12.61,5.36-6.33,2.62-6.16,2.48-9.26,3.81-2.15.92-11.76,5.47-15.93,7.56-.34.17-6.33,3.13-7.32,3.55.79,19.93.35,37.28.44,57.66.11,23.1-2.39,46.86,2.29,70.67s8.53,49.05,8.57,73.68a4.44,4.44,0,0,1,3.65-.26c.08,0,.14.17.2.1a5.14,5.14,0,0,1,4.21-1.33c1.64.09,2.93,1.17,4.47,1.71,1.89-9.31,4.32-18.29,6.23-27.65,3.36-16.52,3.87-31.72-1.1-47.95-1-3.34-4.27-6.37-3.57-9.82,2.09-10.41,5.81-19.46,10.24-28.92a8.89,8.89,0,0,0,2.34-3.68,420,420,0,0,1,20.86-41.76,44,44,0,0,0,2.86-6,52.48,52.48,0,0,0,2.34-8.24C825.39,176.91,820.12,157.1,805.43,134Z"/><path class="cls-3" d="M848.5,167.21c-.45-2.45.08-1.61-2.78-4.13-5.8-5.1-3.56,2.3-10-11.5-3-6.35-14.23-32.06-27-48.25C802.62,95.53,772.52,69,755.59,64c-.53-.16-4.74-3.22-7.45-2-4.52,2-11.25,5.81-11.61,12.72-.24,4.63-1.76,7.41,3.24,12.41,9.18,9.19,28.52,16.46,41.63,21.25,12.11,5.29,20,10.67,27,22.18a82.5,82.5,0,0,0,6.61,9.11,231.14,231.14,0,0,1,14.84,20.19,11.37,11.37,0,0,1,2.25,7.28A16,16,0,0,0,836,179.24c1.91-.18,3.26-.14,4.67,1.32,1,.17,1.56,1.87,2.78.75C847.54,177.52,849.64,173.34,848.5,167.21Z"/><path class="cls-4" d="M796,242.22c1-6.81,4-12.88,7-18.91,7-13.88,14.55-26.72,21.45-41,5.15,18.07,4.3,22.4,9.65,44.29,3.74,15.27,25,46.57,30.47,63.77,5.64,17.81,4.62,29.17,7.64,45.69-2.65,3.26-5.09,5.38-9.38,6.11-8.55-15.45-16.7-30.93-25.46-46.33-6.61-11.62-13.39-22.4-23.31-31.7A100.62,100.62,0,0,1,796,242.22Z"/><path class="cls-4" d="M836,179.24c.88-1.12,1.33-3.3,3.14-2.83s1.47,2.58,1.53,4.08c-1.58,1.66-1.06,2.83.43,4.17,3.62,3.25.28,5.15-1.23,8.09s-2.78,1.77-4.78.76a48.47,48.47,0,0,1-4.36-2.69c-5.11-3.3-6-4.78-2.93-10.11,1.28-2.21,3-2.87,5.29-1.13A1.87,1.87,0,0,0,836,179.24Z"/><path class="cls-4" d="M848.62,167.32a9,9,0,0,1-2.73-4c-1.2-2.85-4.93-3.11-3-6.71,2.87-5.27,5.48-5.28,10.53-2.19.43.26,1.29.77,1.73,1.09,4.5,3.24,5.25,4.61,2.2,9.65-1.19,2-3,3-5.2,1.21C850.65,165.17,849.7,166,848.62,167.32Z"/><path d="M746.84,130.37c1.24-1.15,2.49-2.15,3.62-3.27s2.19-2.32,3.37-3.53a10.3,10.3,0,0,1-7,6.8Z"/><path d="M736.44,74a19,19,0,0,0-.34,4.37c0,.36.09.72.12,1.1a8.79,8.79,0,0,0,.11,1.07,1.68,1.68,0,0,0,.17.46l.26.49c.17.34.34.67.48,1a8.94,8.94,0,0,0,.9,1.95,16.41,16.41,0,0,0,1.38,1.66,34.59,34.59,0,0,0,3.18,3,61.26,61.26,0,0,0,15.13,8.7c2.68,1.18,5.41,2.27,8.15,3.33s5.51,2,8.22,3.24c5.4,2.37,10.61,5.13,15.77,8l-8-3.72c-2.67-1.24-5.34-2.45-8.06-3.55-5.46-2.12-11-4-16.47-6.36s-10.73-5.1-15.23-9a38.88,38.88,0,0,1-3.14-3.15,17.2,17.2,0,0,1-1.39-1.77,9.07,9.07,0,0,1-.88-2.08c-.12-.34-.26-.67-.41-1l-.24-.49a2.16,2.16,0,0,1-.18-.58,10.94,10.94,0,0,1-.06-1.12c0-.36-.06-.73-.06-1.11A17,17,0,0,1,736.44,74Z"/><path d="M784.5,272c.9-3.16,1.91-6.29,2.92-9.42l1.61-4.66,1.67-4.64c2.29-6.16,4.83-12.23,7.45-18.26s5.5-11.95,8.47-17.81q2.25-4.4,4.56-8.74c1.58-2.88,3.15-5.77,4.79-8.62l-4.33,8.85q-2.17,4.42-4.29,8.87c-2.82,5.92-5.62,11.86-8.24,17.87s-5.21,12-7.65,18.13l-1.81,4.58-1.75,4.6-1.72,4.61Z"/><path class="cls-4" d="M789,357.48c-.07,2.54.3,5.1-.16,7.63-.25,1.32-.73,2.14-2.3,2.05a264.93,264.93,0,0,1-35.12-4,30.25,30.25,0,0,1-3.38-1.1c-2-1.85-2-2.76.59-4A30.8,30.8,0,0,1,757,356c6.63-1,12.37-2.8,17.74-7,2.28-.46,3,1.5,3.68,3,1.56,3.57,2.55,4,6.21,3.2,1.23-.26,2.57-1,4-.68C788.64,355.54,789,356.5,789,357.48Z"/><path class="cls-7" d="M770.78,344.77a13.27,13.27,0,0,1,.16,3.67,2.91,2.91,0,0,1-.66,1.84,3.18,3.18,0,0,0-.71,3.38s.09.07.13.07c3.43,0,5.26,1.78,7.12,4.47.46.67.87,1.3,1.28,1.93a3.08,3.08,0,0,0,3.65,1.48,57.8,57.8,0,0,0,6.9-2.22c.78-.3.89-1,.89-1.77a116.15,116.15,0,0,1,.68-12.78,7.75,7.75,0,0,1,.22-1.22c.42-1.61.19-3-1.37-3.81-3.62-2-7.11-2.56-11.33-3.17-1.65-.24-7.21.14-7.72,2.29S770.4,342.78,770.78,344.77Z"/><path class="cls-6" d="M777.5,349.65c.07-.06.26-.21.2-.34a.73.73,0,0,0-.41-.38,14.49,14.49,0,0,0-5-.62.6.6,0,0,0-.59.38.3.3,0,0,0,.29.42,18.26,18.26,0,0,1,5.21.6A.53.53,0,0,0,777.5,349.65Z"/><path class="cls-4" d="M868.32,360.55c-6,2.44-11.87,2.15-18.17,2-1,0-1.26-.57-1.07-1.43s.51-1.58.73-2.4a30.08,30.08,0,0,1,6.84-6.14,10.82,10.82,0,0,0,5.24-8.94,3.79,3.79,0,0,1,.83-2.59c1.41-1.3,3-.09,4.32.28,3.9,1.09,5.08.75,7.64-2.46.87-1.11,1.41-3.09,3.42-2.81,1.1,1.28,2.5,2.58,3.53,3.92,3.62,4.71,3.37,7.65-1.59,11.18C876.05,354,871.8,357,868.32,360.55Z"/><path class="cls-7" d="M862.2,342.74a3.7,3.7,0,0,1,3.43-.33,33.48,33.48,0,0,1,3.51,1.34,4.69,4.69,0,0,0,5.17-.78c1.72-1.33,3.25-3.18,4.86-4.7a10.35,10.35,0,0,0-1.46-2.77c-2.16-3.47-3.72-7.15-5.71-10.72-.24-.43.34-1.18-.93-1.19-2.87,0-8.46,6.35-12,7.68-.76.29-2.38,0-2.83,1a2.93,2.93,0,0,0,.73,2.86,28.44,28.44,0,0,1,4,6.63C861.15,342.32,861.47,342.89,862.2,342.74Z"/><path class="cls-6" d="M869.22,333.58a36.88,36.88,0,0,0,4.15-3.33c.2-.19.37-.38.18-.62s-.45-.1-.64.05c-.64.5-1.27,1-1.87,1.54a10.29,10.29,0,0,1-3.6,2.13c-.32.11-.62.21-.49.57s.39.28.75.18A8,8,0,0,0,869.22,333.58Z"/><path class="cls-1" d="M712.51,23.67c-2.13,1.34-4.24,2.72-6.24,4.23-1,.77-2,1.53-2.95,2.34a28.71,28.71,0,0,0-2.74,2.53,26.11,26.11,0,0,0-4.23,6.12A31.66,31.66,0,0,0,693.89,46a25,25,0,0,1,2-7.32,25.24,25.24,0,0,1,4.21-6.35,27.35,27.35,0,0,1,2.85-2.55c1-.79,2-1.58,3-2.28A49.11,49.11,0,0,1,712.51,23.67Z"/><path class="cls-1" d="M703.12,46.05a32.31,32.31,0,0,0,3.3-2.16,20.39,20.39,0,0,0,2.88-2.61,21.57,21.57,0,0,0,2.36-3.09,38.34,38.34,0,0,0,1.9-3.45,16.81,16.81,0,0,1-1.45,3.71,17.09,17.09,0,0,1-2.31,3.29,16.87,16.87,0,0,1-3.08,2.58A16.34,16.34,0,0,1,703.12,46.05Z"/><path class="cls-1" d="M733.46,24.9a4.82,4.82,0,0,1,3.43.89c1,.7,1.9,1.46,2.82,2.23a63.84,63.84,0,0,1,5.13,5c.8.89,1.58,1.81,2.33,2.72A4.2,4.2,0,0,0,750,37.38a8.79,8.79,0,0,0,6.61-1.77,9.25,9.25,0,0,1-3.05,1.89,8.53,8.53,0,0,1-3.62.4,4.57,4.57,0,0,1-3.24-1.75c-.78-.9-1.56-1.78-2.37-2.66-1.57-1.77-3.24-3.45-5-5.08-.87-.81-1.75-1.62-2.67-2.35A4.87,4.87,0,0,0,733.46,24.9Z"/><path class="cls-1" d="M733.76,24.45A37.82,37.82,0,0,1,741,29.91c2.23,2.06,4.31,4.25,6.57,6.24a29.78,29.78,0,0,0,7.4,5,21.52,21.52,0,0,0,8.72,2,19.24,19.24,0,0,1-8.94-1.52,28.31,28.31,0,0,1-7.63-5c-2.25-2-4.35-4.23-6.49-6.36A48.14,48.14,0,0,0,733.76,24.45Z"/><path class="cls-1" d="M714.41,24.23a1,1,0,0,1-1-.49l-.59-.94a10.16,10.16,0,0,1-1-2,12.34,12.34,0,0,1-.69-4.43,15.08,15.08,0,0,1,.93-4.38,28.28,28.28,0,0,1,1.94-4c-.48,1.4-1,2.76-1.44,4.16a16.12,16.12,0,0,0-.74,4.23,13.06,13.06,0,0,0,.49,4.26,11,11,0,0,0,.77,2l.46,1A.9.9,0,0,0,714.41,24.23Z"/><path class="cls-1" d="M734.67,24.64c.55-.76,1.15-1.48,1.62-2.24a15.18,15.18,0,0,0,2-7.83,9.21,9.21,0,0,1-.24,5.61,10.24,10.24,0,0,1-1.36,2.52A10.75,10.75,0,0,1,734.67,24.64Z"/><path class="cls-8" d="M723.63,56.66a2.9,2.9,0,0,1-3.15,3.05,3.42,3.42,0,0,1-3.18-3.46,2.93,2.93,0,0,1,3.18-3.06A3.41,3.41,0,0,1,723.63,56.66Z"/><path class="cls-8" d="M712.34,60.79a2.93,2.93,0,0,1-3.18,3.06A3.41,3.41,0,0,1,706,60.4a3,3,0,0,1,3.18-3.08A3.41,3.41,0,0,1,712.34,60.79Z"/><path d="M719.62,52.72a1.06,1.06,0,0,1-.46,1.49,1.16,1.16,0,0,1-1.67-.39,1.61,1.61,0,0,1,.46-2C718.61,51.43,719.34,52.13,719.62,52.72Z"/><path d="M709,56.29a1,1,0,0,1-.25,1.48.94.94,0,0,1-1.42-.4,1.15,1.15,0,0,1,.35-1.58C708.19,55.46,708.63,55.78,709,56.29Z"/><path d="M718.46,62.81a4,4,0,0,1-.93.38c-.32.09-.68.1-.78-.27s.25-.43.51-.51a3.07,3.07,0,0,0,1.94-1.56,3,3,0,0,0,.3-1.17c0-.36.08-.6.46-.55s.44.39.37.74A3.8,3.8,0,0,1,718.46,62.81Z"/><path class="cls-3" d="M706.67,49.82a14.61,14.61,0,0,1,4.62-3.55,15.05,15.05,0,0,1,5.63-1.5c-1.79.78-3.56,1.43-5.25,2.27S708.39,48.88,706.67,49.82Z"/><path class="cls-3" d="M705.08,48.34c1.4-1.29,2.87-2.42,4.29-3.6s2.81-2.41,4.34-3.54a18.7,18.7,0,0,1-3.79,4.2A19.17,19.17,0,0,1,705.08,48.34Z"/><path class="cls-9" d="M192.2,141.55c-5,18.37-12.36,30.77-18.17,38.74-6.85,9.42-16.29,19.19-15,31.79a24.19,24.19,0,0,0,2.7,8.67c2.17,6.24,4,12.62,7.16,18.45a38.4,38.4,0,0,0,22.71,18.9q31.05,10.08,62.05,20.36c1.91.63,3.66,1.32,5.52.07,2.95-3.22,5.13-6.73,4.29-11.38-9-4.91-16.39-11.8-23.8-18.71-10.4-9.69-22.64-14.25-36.9-12.78-1.92.19-3.14-.17-3.92-.87-2-1.73-1.53-5.21-1.45-6C197.94,223.38,195.92,191.48,192.2,141.55Z"/><path class="cls-4" d="M278.76,294c-4.23,5.48-10.05,8.67-16.22,12.21-1,.58-1.56.27-1.91-.53s-.5-1.58-.8-2.38a28,28,0,0,1,2.77-9c1.83-3.8,1.68-6.88-.51-10.31a3.29,3.29,0,0,1-.81-2.58c.55-1.88,2.81-1.82,4.32-2.29,4.43-1.4,5.35-2.36,5.81-6.45.16-1.41-.55-3.33,1.55-4.28,1.86.4,4,.63,5.83,1.11,6.39,1.71,8,4.23,5.4,10C282.12,284.12,279.88,289,278.76,294Z"/><path class="cls-7" d="M261.85,283.1a4.43,4.43,0,0,1,3.08-2.27c1.41-.45,2.81-.66,4.21-1a5.48,5.48,0,0,0,4.48-3.65,64.15,64.15,0,0,0,1.76-6.64,12.18,12.18,0,0,0-3.12-1.39c-4.23-1.55-8-3.62-12.13-5.35-.5-.21-.41-1.15-1.64-.42-2.78,1.64-4.18,10.08-6.76,13.23-.55.68-2.29,1.39-2.08,2.48s1.32,1.58,2.48,1.9a33.05,33.05,0,0,1,7.92,3.05A1.43,1.43,0,0,0,261.85,283.1Z"/><path class="cls-6" d="M262.91,271.58a34.67,34.67,0,0,0,1.92-5.12c.08-.27.12-.52-.21-.61s-.49.18-.59.42c-.3.78-.59,1.55-.84,2.34a10.26,10.26,0,0,1-2.13,3.82c-.24.28-.47.54-.12.76s.55,0,.84-.3A8.55,8.55,0,0,0,262.91,271.58Z"/><path class="cls-10" d="M185.77,152.74c-2.75.93-5.36,2.08-8.07,3.14a105.11,105.11,0,0,1-12.92,4.28c-9.25,2.3-18.35,2.62-28.13,3.17-2.18,4.8-14.46,18.35-16.8,21C106.3,199.45,95,227.75,92.69,241.85s-.61,15.18-.6,23.39c0,19.74,0,34.26-2.23,52.84a10.94,10.94,0,0,0,.41,2.78,16.38,16.38,0,0,0,11.42,2.41c.61-.33,2.09-.75,2.3-1.4,5.28-16,13.47-28.9,15.26-46.3.76-7.41-.08-18.33-.62-26.3,5.62-6.23,11.24-11.86,17.44-17.51,6.92-6.31,13.8-12.22,20.73-19a29.49,29.49,0,0,0,2.5-2.44c7.6-8.2,14.49-16.94,22.09-26.86,3-3.93,8.31-9.67,8.92-16.62.26-2.94.16-10.44-3.34-13.23A5,5,0,0,0,185.77,152.74Z"/><path d="M188.05,174.09c-2.43,3.52-4.83,7.06-7.28,10.56s-5,6.93-7.63,10.32A162.62,162.62,0,0,1,156,214.07c-1.56,1.47-3.23,2.84-4.87,4.2s-3.27,2.74-4.88,4.15c-3.22,2.8-6.37,5.69-9.5,8.59s-6.18,5.9-9.19,8.93-6,6.1-8.9,9.23q4.25-4.81,8.65-9.47t9.06-9.09c3.07-3,6.24-5.86,9.44-8.69q2.41-2.13,4.87-4.19c1.65-1.37,3.28-2.73,4.82-4.19a168.54,168.54,0,0,0,17.21-18.91C178,187.94,183,181,188.05,174.09Z"/><path class="cls-4" d="M107,332.16c-.23,2.47,0,4.93-.68,7.35-.38,1.27-.79,2-2.46,1.79-12.45-1.56-24.83-.85-37.41-.91a24.84,24.84,0,0,1-3.59-.73c-1.83-1.66-2.41-2.48.2-4a47.3,47.3,0,0,1,8.8-3.46,112.37,112.37,0,0,0,21.05-9.09c2.24-.38,3,1.54,3.66,3,1.55,3.44,2.67,3.87,6.25,3.58,1.21-.1,2.67-.74,4-.34C106.79,330.29,107.07,331.22,107,332.16Z"/><path class="cls-7" d="M89,318.78a11.69,11.69,0,0,1-.26,3.68,4.09,4.09,0,0,1-1,1.88,3.6,3.6,0,0,0-1.2,3.46c0,.06.09.08.14.08,3.63.1,5.6,1.47,7.74,4.24.54.69.85,1.29,1.29,1.91a3.56,3.56,0,0,0,3.77,1.57,50.49,50.49,0,0,0,7-1.64c.81-.24.94-.87,1-1.63.3-4.08.69-8.18,1.39-12.22.07-.39.21-.78.3-1.15.37-1.56.38-2.82-1.18-3.72-3.64-2.09-7-3-11.33-3.95C95,310.9,90,310.75,89,312.92S88.9,316.69,89,318.78Z"/><path class="cls-6" d="M95.77,323.82c.1-.06.28-.15.22-.31a.66.66,0,0,0-.39-.38,15.63,15.63,0,0,0-5.39-.79.74.74,0,0,0-.67.35.27.27,0,0,0,.26.42,21.06,21.06,0,0,1,5.64.75A.39.39,0,0,0,95.77,323.82Z"/><path class="cls-11" d="M197.21,126.22C196,104.63,195,86.5,182.16,72.89c-2.68-2.84-13.7-14.52-27.54-12.71C143.72,61.59,137,70.6,135.76,72.24c-5.45,7.35-7,18-10.23,39.31-.14.93-.24,1.68-.3,2.16-.36,3.08-.31,5.08-1.61,15.81-2.72,22.48-4.65,27.76-1.9,34.16a20.66,20.66,0,0,0,7.93,9.09c4.69-.13,9.32.52,14,.21l6.41-.41c.44-.91,14.82-2.86,20.79-4.44,6.71-1.77,13.7-2.41,20.45-4a1.94,1.94,0,0,1,.53,0,33.57,33.57,0,0,0,4.16-3.19A191.75,191.75,0,0,0,197.21,126.22Z"/><path class="cls-12" d="M160.14,35.06c-1.14-2.91-4.31-11-13-14-6.61-2.28-12.34-.17-14.59.65-3.15,1.16-6.81,2.44-8.4,6.13a11.33,11.33,0,0,0,.31,9q-.32,0-.63.12a6.34,6.34,0,0,0,.62,12.46c.62.88.55,4.53.61,5.61a11.89,11.89,0,0,0,2.69,4.45c4.62,4.72,11.72,3.48,12.54,3.33h0s-4.54,13.84,1.85,13.88c4.09,0,8.33-6.88,10.85-11.87a101.56,101.56,0,0,1,.85-13.62,2.64,2.64,0,0,1,.61-1.33c.72-2,4.46-1.33,6.32-3.1C163.67,44.07,160.81,36.77,160.14,35.06Z"/><path class="cls-1" d="M123.55,20.13c14.59-4.54,23-13.13,36,0,14.2,3.55,5,14.48,4.38,15.38a33.37,33.37,0,0,0-2.45,4.31c0-.28-.07-3.54-2.43-4.93-1.7-1-3.62-.47-5.12,0A10.44,10.44,0,0,0,150,37c0-1.05,0-2.13,0-3.21,1.24-3.69.7-7.4-1.54-9.53a6.8,6.8,0,0,0-2.82-1.57c-4.58-1.86-7.46-1.41-9.26-.66-2.16.91-3,2.39-6.5,4.46a30,30,0,0,1-5.15,2.41C119.22,29.58,120.32,22.37,123.55,20.13Z"/><path d="M129.89,173c5.68,0,11.36-.28,17-.87,2.82-.31,5.63-.65,8.42-1.11a74.63,74.63,0,0,0,8.25-1.92,79,79,0,0,1,8.38-1.78c2.85-.43,5.7-.43,8.46-.89s5.4-1.61,8.27-2c.71-.11,1.43-.16,2.12-.26a7,7,0,0,0,2-.62,9.55,9.55,0,0,0,3.24-2.66,9.11,9.11,0,0,1-3.13,2.88,7,7,0,0,1-2,.75c-.71.14-1.41.22-2.1.37-2.77.46-5.36,1.76-8.22,2.25s-5.7.56-8.46,1a78.84,78.84,0,0,0-8.27,1.84,75.42,75.42,0,0,1-8.36,1.85c-2.81.43-5.64.79-8.48,1A121.45,121.45,0,0,1,129.89,173Z"/><path class="cls-13" d="M171.3,75.72c-1.59-8-6.27-10.32-11.94-12.56-4.8-1.9-8.38.17-11.73,2.64-5.86,4.34-7.4,7.35-10.23,14.57-3.57,9.14-2.65,17.33-6.07,28.86-1.43,4.84-3.66,14.29-10,22-1.48,1.79-13.6,15.72-21.11,18.39-2.79,1-15.4,10.47-18.95,13.32,2.08,3,4.8,5.58,7.17,8.44,11.1-1.53,22-9.54,30.33-15.22,9.06-6.18,13.09-5.88,21.27-13.73s14.65-22.56,20.44-33.52C165.54,99.26,173.38,86.16,171.3,75.72Z"/><path d="M125.07,125.71c2-5.36,3.84-10.78,5.37-16.28a153.85,153.85,0,0,0,3.73-16.71c.5-2.81,1-5.64,1.72-8.43a36.52,36.52,0,0,1,3-8.09,32.07,32.07,0,0,1,5.05-7,33.22,33.22,0,0,1,6.72-5.35,33.55,33.55,0,0,0-11.2,12.64,38.77,38.77,0,0,0-2.87,8c-.68,2.76-1.16,5.57-1.64,8.4a141.68,141.68,0,0,1-3.93,16.74A137,137,0,0,1,125.07,125.71Z"/><path class="cls-7" d="M130.1,51.29c3,2.92,6.53,2.19,8-1.73a39.93,39.93,0,0,0-4.06.78l-4,.66Z"/><path d="M130.91,46.69c0,.19.06.38.1.56.19,1.15.65,1.46,1.74,1.15.63-.18,1.23-.43,1.86-.62.33-.1.44-.24.33-.58s-.3-.49-.67-.35-.88.28-1.3.47c-.64.28-1,.23-1.07-.59a8,8,0,0,0-.15-1c-.06-.33-.05-.65-.57-.57s-.46.41-.39.77l.12.72Z"/><circle class="cls-14" cx="140.83" cy="44.71" r="3.82"/><path d="M137.56,43c1.26.12,1.74-.38,1.57-1.63a1.24,1.24,0,0,0-1.45-.64,1.12,1.12,0,0,0-.86,1A1.17,1.17,0,0,0,137.56,43Z"/><circle class="cls-14" cx="125.92" cy="47.53" r="3.82"/><path d="M126.41,43.82a1.29,1.29,0,0,0,1.67.92,1.19,1.19,0,0,0,.68-1.54,1.11,1.11,0,0,0-1.28-.76A1.19,1.19,0,0,0,126.41,43.82Z"/><path class="cls-15" d="M140.05,62.9s6.11-3.13,8.5-9.13c0,0,2,10.16-9.43,13.91Z"/><path d="M148,55.28a9.5,9.5,0,0,1-1.26,2.53,13.67,13.67,0,0,1-1.81,2.2,11.41,11.41,0,0,1-4.86,2.86,24.2,24.2,0,0,0,4.39-3.34c.65-.64,1.27-1.32,1.86-2A24.84,24.84,0,0,0,148,55.28Z"/><path d="M135.72,34a9.24,9.24,0,0,1,5.14,1.58,11.79,11.79,0,0,1,1.39,1.15.68.68,0,0,1,.05,1c-.31.33-.65.21-1-.06a9,9,0,0,0-5.58-2.42c-.37,0-.75-.14-.76-.59S135.3,34.08,135.72,34Z"/><path d="M154.66,39.46a5.5,5.5,0,0,1,2.27.24c.32.12.68.34.53.71s-.53.2-.84.08a2.92,2.92,0,0,0-3.78,1.27c-.21.38-.36.58.32.61a3.57,3.57,0,0,1,3,1.77c.17.27.41.64.12.89s-.59-.12-.78-.36a3.44,3.44,0,0,0-1.75-1.32,1.4,1.4,0,0,0-1.89.86c-.14.32-.28.67-.68.54s-.23-.52-.15-.79C151.55,41.93,152.42,40.15,154.66,39.46Z"/><path d="M124.64,38.91c0-.28,0-.57.08-.85A4.89,4.89,0,0,1,129,35.85c.43,0,.94,0,.94.58s-.44.59-.9.62a3.14,3.14,0,0,0-2.37.83c-.52.2-.67.69-.87,1.14A1.42,1.42,0,0,1,124.64,38.91Z"/><path class="cls-15" d="M128.85,43.76a2.86,2.86,0,0,1-1,2.33,2.4,2.4,0,0,1-1.21.55,2.52,2.52,0,0,1-1.28-.15,4.3,4.3,0,0,0,2.1-.87A6.4,6.4,0,0,0,128.85,43.76Z"/><path class="cls-15" d="M141.37,42.57a2.82,2.82,0,0,1-2.21,1.23,2.31,2.31,0,0,1-1.29-.31,2.48,2.48,0,0,1-.92-.9,4.2,4.2,0,0,0,2.19.6A6,6,0,0,0,141.37,42.57Z"/><path class="cls-16" d="M241.55,336.2a34.23,34.23,0,0,1,2.32,8c.12.8-.06,1.08-.88,1.08-1.73,0-3.59,0-5.34,0-.87-.34-.84-1.26-1.08-2-2.73-7.91-7.13-13.14-15.56-14.8-7.91-1.55-13.57,1.44-18.78,7.23a16.49,16.49,0,0,0-3.41,7.27c-.43,1.78-1.18,2.73-3,3.07a20.54,20.54,0,0,1-3,.26c-44.45,1.71-88.9,2.51-133.35.88A7.63,7.63,0,0,1,53.18,344c-4.22-5.31-8.45-10.56-12.86-15.73-2.46-2.89-4.92-5.75-7.2-8.84a10.94,10.94,0,0,0-1.72-2c-1,3.5-1.72,7.21-2.64,10.71-.64,2.41-1.11,4.75-1.67,7.12-.86,3.68-1.62,7.32-2.59,10.95a4,4,0,0,1-.34,1c-.87,1.51-2.14,2.83-4,2.28a3.39,3.39,0,0,1-2.37-4.18c.78-4.07,1.86-8.19,2.88-12.28.51-2,.66-4.22,1.88-6,2-8.35,3.83-16.21,5.94-24.64,5.58-22.25,36.61-111.31,41.92-125.16a.7.7,0,0,1,.7.34c1.94,2.83,4.18,3.07,7.32,2.45.71-.14,1.49-.13,1.73.61.37,1.11-.31,2.25-.73,3.36C75.59,194.12,42.46,294.91,40,305.57a4.51,4.51,0,0,0,1,4.29c7.58,9.37,15.49,18.43,23.38,27.54a1.4,1.4,0,0,0,.51.43,7.32,7.32,0,0,0,3,.63H68c21.54.59,43.05,1,64.6.73a7.6,7.6,0,0,0,1.66-.13,12.79,12.79,0,0,1,1.58-.28,14.53,14.53,0,0,1,3.16-.07c11-.36,22.06-.57,33.1-1a3.7,3.7,0,0,1,2.08.44c6-.19,12-.47,18-.66,1.06,0,1.19-.75,1.6-1.42,5.11-8.21,10.79-13.79,20.88-14.77,11.6-1.14,20.15,4.42,26.39,14A4.63,4.63,0,0,1,241.55,336.2Z"/><path class="cls-17" d="M82.59,179.75c-2.22,3.41-4,4.11-8,3.12a14.42,14.42,0,0,1-3.91-4.18,8.17,8.17,0,0,1,1.86-10.4c3.1-2.73,6.47-4,9.82-6.15,1,1.91,3.12,3.3,3.57,5.44.32,1.51-.86,2.18-2.06,2.55-.81.25-1.54-.52-2.22-.77-2.3-.87-4.62-.92-6.38.88a5.17,5.17,0,0,0-1.11,6.18,5.74,5.74,0,0,0,6.44,3.26C81.26,179.57,82,179,82.59,179.75Z"/><path class="cls-18" d="M26.51,335.14c.54-2.29,1.08-4.57,1.64-6.89,2.44,1.11,4.62,2.22,6.32,4.44,8.14,10.67,7,21.64-2.58,30.91-.64.62-1.45.63-2.16.95-5.1,2.34-10,3.31-15.43,2a13.69,13.69,0,0,1-5.37-2.3C4.21,360.43.36,356.44,0,349.9-.63,336.56,7.76,328,21,327c.53,0,1,.07,1.53.06-.46,2.07-.92,4.13-1.4,6.2a3,3,0,0,1-1.61.44,14,14,0,0,0-12.92,11.6,12.93,12.93,0,0,0,10.21,14.91c6.49,1.47,11.73-1.63,14.63-6.94,3.13-5.75,1.37-11.74-2.86-16.29C28,336.24,27.06,335.87,26.51,335.14Z"/><path class="cls-18" d="M196.14,345.55c1.44-.31,1.71-1.18,2.1-2.49,1.64-5.45,4.33-10.06,9.46-12.81,7.34-3.95,13.94-3.45,21,.77,4.89,2.92,7.1,7.65,8.55,13a5,5,0,0,1,.34,1.3c0,4.53-.46,8.75-2.93,12.68a15.82,15.82,0,0,1-4.64,5.25c-8.31,5.48-16.5,5.08-24.89-.24a3.58,3.58,0,0,1-2-1.16c-3.46-4-5.5-8-5.79-13.36A3.45,3.45,0,0,0,196.14,345.55Z"/><path class="cls-7" d="M26.51,335.15a2.42,2.42,0,0,1,1.9.92c4.9,4.68,6.69,11,3.66,17.16a13.66,13.66,0,0,1-15.89,7.39A13.06,13.06,0,0,1,6,346.83c.54-8.51,6.78-13.71,15.14-13.61-.81,3.89-1.92,8.09-2.76,11.91-.43,1.93.22,3.49,2,3.89s2.92-.72,3.41-2.47C24.8,342.93,25.59,338.87,26.51,335.15Z"/><path class="cls-18" d="M85.76,174.17a7,7,0,0,1-5.71,6.28c-.56.15-1.15,0-1.73.05-.18-.42-.64-.39-1-.58a6.28,6.28,0,0,1-3.61-6.83A6,6,0,0,1,79.48,168c3-.11,5.21,2,6,4.85A3.46,3.46,0,0,1,85.76,174.17Z"/><path class="cls-7" d="M217.55,333.72a13.55,13.55,0,0,1,13.83,13.69,13.35,13.35,0,0,1-13.63,13.81,13.69,13.69,0,0,1-13.83-13.77A13.38,13.38,0,0,1,217.55,333.72Z"/><path class="cls-19" d="M574.92,138.12c3.77-4.64,2.9-9.69,5.35-14.79,8.37,4.55,17.43,6.25,26.64,8.35a25.4,25.4,0,0,1-4,12.12A39.87,39.87,0,0,1,579.32,146C576.47,144.06,575.44,141.45,574.92,138.12Z"/><path class="cls-20" d="M602.91,143.79a57.25,57.25,0,0,1,4-12.12c6.39,2.39,10.17-3.68,15.5-5.51,2.58-.89,6.2-4,8-.8,2.4,4.35.92,9.28-1.41,13.7-1.68,3.18-4.27,4.89-7.91,4.61C614.93,143.21,609,143.64,602.91,143.79Z"/><path class="cls-11" d="M463.5,336.53c4.94-3.6,11.43-4.43,15.88-8.89,4.05,2.61,7.74,5.61,10.27,9.81,1.13,1.77-.27,3.12-1,4.38-3.92,7-1.24,12.89,2.93,18.58-2.49,4.76-8.32,6.65-11.72,2.49C473.35,354.9,466.75,346.68,463.5,336.53Z"/><path class="cls-7" d="M559.87,57.92c-4.8-.26.12-2.34-2.74-4.16-1-.4-2.08-.81-2.4-1.92a5.25,5.25,0,0,1,1-4.49,7.1,7.1,0,0,1-7.46-2c-2.23-2.69-1.87-7.28,1.36-10.09-.07-2.2-2.13-3.62-2.25-5.81-.35-5,3.89-10.29,9-10.61,4.24,0,4.56-5,7.8-6.55,7.25-3.5,14.34,1.13,20,5.24a23.13,23.13,0,0,1,3.34.55c1.32.31,9.46,2.25,10.64,6.57.76,2.8-1.63,5.78-3.69,8.07-4,4.51-11.67,11.81-25.32,19.6C568.44,56.33,563.53,58.59,559.87,57.92Z"/><path class="cls-11" d="M617.32,328.79c-8,2.25-10.81-3-13.05-9.22a277.29,277.29,0,0,1-12.93-51.25c-2.44-15-8.78-28.07-17.38-40.88-3.28-4.88-7.36-10.23-10.72-15.16-4.28,10.1-7.78,21-11.88,31.06A192.65,192.65,0,0,1,529.31,283c-9.45,13.29-18.09,26.65-26.76,40.56-2.06,3.31-4.3,6.37-8.62,6.65-4.57-2.44-9.25-4.33-13.14-7.81,3-24.69,10.64-46.49,28.09-64.59a34.37,34.37,0,0,0,7-10.09,33.88,33.88,0,0,0,2.78-13c1.49-55,2.63-96.4,18.5-107.45,6.65-4.63,19.5-6.43,47,8.4,10.89,26.85,23.55,61.73,31.65,96.52,1.23,5.27,2,2.24,6.22,29.15,2.94,18.69,5.51,36.48,9.26,55,.55,2.71,1.27,5.27.41,8.05C627.16,327.19,622.59,328.33,617.32,328.79Z"/><path class="cls-21" d="M589.66,144.35c-27-5.35-43.29-3.54-53.34-.68-3,.85-11.5,3.53-15.1-.29-2.73-2.89-1.64-8.45-.73-13.1a39.75,39.75,0,0,1,5.36-13.48c.59-3.66,1.08-4.19,4.55-6.74,6-4.4,20.28-10.61,21.39-19,.35-2.6-2.55-2.53-2.55-4.86s1.29-3,1.38-5.49-1.34-4-2.74-6.83a32.87,32.87,0,0,1-2.57-8.93c5.41-2.25,9-3.46,15.48-3.1a20.83,20.83,0,0,1,9.47,2.53,26.43,26.43,0,0,1,8.82,9.71c5.07,9.3,9.12,20.47,13.24,30.31A8.38,8.38,0,0,1,593,108c-.09,3.26-2.15,5-3.38,7-2.86,4.82.65,8.58.75,19.89A55.81,55.81,0,0,1,589.66,144.35Z"/><path class="cls-19" d="M548.18,63.79c1.57.81,10.29,5.45,11.35,13.85.39,3.1-.31,6.32-2.89,10.9-6.2,11-15,14-25.88,23.29-2.58,2.22-17.27,12.24-20.05,19.55-4,10.56-9.82,22.75-18.37,31-4.53,1-7.79.84-11-2.61,3-23.22,10.52-43.45,23.08-60.39C509.14,93,520.61,77.9,540.9,67.25,543.86,65.69,546.4,64.55,548.18,63.79Z"/><path class="cls-11" d="M614.33,351.69c.65-6.58,4.06-12.25,4.41-18.86,4.76-1.29,9.41-1.1,14.3-.93,5.11,9.64,11.79,15.11,22,18.92.31.12.41,1.5.36,1.87-.77,3.46-4.08,4.26-6.93,4-10.82-.87-20.9-1.84-31.51-3.07A4,4,0,0,1,614.33,351.69Z"/><path class="cls-20" d="M481.3,159.77c3.68.89,7.33,1.75,11,2.66a22.12,22.12,0,0,0-4,12c-.27,6.81-5.55,9.47-10,13.89-1.18-2.73.95-4.55.57-7.3-4.62,2.71-7.51,7.15-11.51,10.6-1.78-6.51-.78-11.54,3.72-16.56S479.89,166.59,481.3,159.77Z"/><path class="cls-7" d="M614.3,351.68c10.51,1,20.6,1.91,31.19,2.79,3.49.3,7,.89,10-1.78,2.75-1.29,5.72-1.59,6.7,1.77s-2.68,3.27-4.79,3.73c-7.18,1.58-14,.93-21.08.32-6.57-.58-13.26-1.46-19.52-2.07C612.79,356,613,354.62,614.3,351.68Z"/><path class="cls-7" d="M463.54,336.16c5.3,7.52,10.08,14.88,15,22.83,3.11,5,8.73,4.84,13.06,1,1.42,2.17,6.13.54,5.07,4.15-.93,3.18-4.58,3.21-7.7,2.82-7.78-1-12.78-3.47-16.5-10.87-2.46-4.9-5.91-9.29-9.31-14.05C461.72,340,460.06,337.71,463.54,336.16Z"/><path class="cls-20" d="M489.33,337.14c-4.41-2.34-8.05-4.69-10.61-9.08q1-2.83,2.06-5.68c5.34,1.62,9.78,3.14,13.14,7.82C492.4,332.52,490.86,334.83,489.33,337.14Z"/><path class="cls-20" d="M633,331.9a24,24,0,0,1-14.3.94c-.43-1.35-.92-2.68-1.4-4,4.43-3,9.11-3.7,14.28-4.52Q632.33,328.1,633,331.9Z"/><path class="cls-20" d="M590.63,39.63a6.18,6.18,0,0,0-.62-.12,37.7,37.7,0,0,1,1.51-7.65c-6.3,1.81-12.37-4.39-13.95-2.76-2.81,4.29-6.25.12-6.3,3-.5,4.09-1.26,8.49-4,11.74-1.5,2.23-2.41-8.09-9.84-4.16a6,6,0,0,0-2.36,8.4c2.11,2.69,4.69,2.61,5.19,3.87a2.78,2.78,0,0,1,.69,1.59c0,3.11.08,6.25-1.17,9.17,0,0,0,.06,0,.09,1.57,3.8,6.91,15.63,12.2,15.68,6.3.05,2-13.65,2-13.66h0c.85.13,9.17,1.26,12.41-3.08,1.59-2.12,2.71-6.57,2.86-7.17.28-1.11.45-2,.55-2.68a6.24,6.24,0,0,0,.81-12.27Z"/><path class="cls-7" d="M579,36.5A9.18,9.18,0,0,0,573.9,38a12.41,12.41,0,0,0-1.38,1.11.68.68,0,0,0-.08,1c.3.32.65.21.94,0a8.87,8.87,0,0,1,5.54-2.29c.37,0,.74-.13.76-.57S579.4,36.57,579,36.5Z"/><path d="M560.24,41.56a5.52,5.52,0,0,0-2.24.21c-.32.11-.67.31-.53.69s.52.2.82.08A2.89,2.89,0,0,1,562,43.86c.2.38.34.58-.32.6a3.49,3.49,0,0,0-2.94,1.69c-.18.27-.41.63-.13.88s.58-.11.77-.34a3.41,3.41,0,0,1,1.75-1.28,1.36,1.36,0,0,1,1.84.88c.14.32.27.67.66.54s.24-.5.17-.78C563.27,44.05,562.44,42.28,560.24,41.56Z"/><path class="cls-7" d="M589.82,41.51l-.06-.85a4.83,4.83,0,0,0-4.15-2.24c-.42,0-.92,0-.93.56s.43.58.88.62a3.05,3.05,0,0,1,2.32.86c.51.2.65.68.84,1.13A1.4,1.4,0,0,0,589.82,41.51Z"/><path d="M491.38,162.62A67.53,67.53,0,0,0,501,151.68a43.58,43.58,0,0,0,3.63-6.28,41.11,41.11,0,0,0,2.42-6.84,35.81,35.81,0,0,1,6.9-13,37.86,37.86,0,0,1,5.29-5.15q2.84-2.32,5.74-4.55c7.77-5.93,16.19-11,23.26-17.62,3.47-3.37,6.93-6.89,9.24-11.13a16.35,16.35,0,0,0,2-6.89,16.09,16.09,0,0,0-1.34-7.09,15.57,15.57,0,0,1,1.6,7.1,16.59,16.59,0,0,1-1.83,7.1,32.82,32.82,0,0,1-4.15,6.08c-1.57,1.89-3.26,3.66-5,5.38a96.05,96.05,0,0,1-11.37,9.27c-4,2.86-7.95,5.65-11.81,8.6-2,1.45-3.86,3-5.75,4.49a37.26,37.26,0,0,0-5.2,5,36.18,36.18,0,0,0-6.85,12.61,43.32,43.32,0,0,1-2.59,6.88,44.55,44.55,0,0,1-3.8,6.29A64.07,64.07,0,0,1,491.38,162.62Z"/><path d="M555.12,111.52a30.55,30.55,0,0,0,3.38,1.31,29.27,29.27,0,0,0,3.47.85c1.18.23,2.37.46,3.54.59a8.71,8.71,0,0,0,3.54-.26,6.17,6.17,0,0,1-3.57,1,18.88,18.88,0,0,1-3.7-.39,16.11,16.11,0,0,1-3.56-1.1A11.11,11.11,0,0,1,555.12,111.52Z"/><path d="M532.59,170.51a47.76,47.76,0,0,0,11.47-16.35,25.3,25.3,0,0,1-11.47,16.35Z"/><path class="cls-7" d="M585.23,53.78c-2.78,3.77-6.83,3.62-9.21-.44,1.58-.16,3.1.12,4.63.11h4.55Z"/><path d="M583.48,48.84v.64c0,1.3-.45,1.73-1.72,1.59-.72-.09-1.44-.25-2.16-.34-.39,0-.53-.2-.47-.59s.24-.59.67-.5,1,.14,1.53.27c.76.2,1.18.06,1.07-.84a8.06,8.06,0,0,1,0-1.1c0-.37-.07-.73.52-.73s.59.36.58.78c0,.27,0,.55,0,.82Z"/><circle class="cls-14" cx="572.15" cy="48.47" r="4.28"/><path d="M575.45,46c-1.36.37-2-.1-2-1.52a1.38,1.38,0,0,1,1.49-1,1.23,1.23,0,0,1,1.13.91A1.31,1.31,0,0,1,575.45,46Z"/><circle class="cls-14" cx="589.16" cy="48.85" r="4.28"/><path d="M587.94,44.83a1.46,1.46,0,0,1-1.69,1.33,1.33,1.33,0,0,1-1-1.58,1.23,1.23,0,0,1,1.27-1.07A1.35,1.35,0,0,1,587.94,44.83Z"/><path class="cls-22" d="M574,64.86s-6.87-3.48-9.57-10.19c0,0-2.17,11.4,10.63,15.55Z"/><path d="M565.09,56.36A28.82,28.82,0,0,0,567,58.84a30,30,0,0,0,2.1,2.26A27.18,27.18,0,0,0,574,64.83a12.74,12.74,0,0,1-5.45-3.19,14.91,14.91,0,0,1-2-2.45A10.44,10.44,0,0,1,565.09,56.36Z"/><path d="M511.9,112.15a16.5,16.5,0,0,1,2.52,1.85,27.11,27.11,0,0,1,2.21,2.21,16.82,16.82,0,0,1,3.25,5.32c-.7-.78-1.34-1.57-2-2.35s-1.32-1.55-2-2.31C514.54,115.32,513.18,113.81,511.9,112.15Z"/><path class="cls-7" d="M571.59,31.28a5.46,5.46,0,0,0,1.72,1.56,6.85,6.85,0,0,0,2.15.85,3.84,3.84,0,0,0,2.21-.13A2.26,2.26,0,0,0,579,31.93l.07-.31.28.16A17.61,17.61,0,0,0,582,33.06a5.14,5.14,0,0,0,2.86.3,3.13,3.13,0,0,0,2-1.89,10.67,10.67,0,0,0,.73-2.93,9,9,0,0,1-.49,3A3.44,3.44,0,0,1,585,33.76a5.52,5.52,0,0,1-3.12-.25,13.53,13.53,0,0,1-2.8-1.32l.35-.15A2.72,2.72,0,0,1,577.84,34a3.91,3.91,0,0,1-2.46.06,6.48,6.48,0,0,1-2.18-1A5,5,0,0,1,571.59,31.28Z"/><path class="cls-7" d="M558.07,21.43a25.56,25.56,0,0,0-6.06.43A7.91,7.91,0,0,0,547.1,25a7.25,7.25,0,0,0-1.22,5.63,7.55,7.55,0,0,0,3.24,4.77l.25.15-.2.21a13.65,13.65,0,0,0-2.37,3.28,12.25,12.25,0,0,0-1.28,3.84,4.64,4.64,0,0,0,1,3.76,3,3,0,0,0,3.69.65,2.52,2.52,0,0,1-2,.43,3.64,3.64,0,0,1-1.85-.94,4.76,4.76,0,0,1-1.16-3.94,11.87,11.87,0,0,1,1.23-4,14.29,14.29,0,0,1,2.41-3.42l0,.36a7.79,7.79,0,0,1-3.46-5.06,7.69,7.69,0,0,1,1.34-6A8.2,8.2,0,0,1,552,21.6,24.06,24.06,0,0,1,558.07,21.43Z"/><path class="cls-7" d="M558.65,19.2a4.56,4.56,0,0,1,1-4.38,6.61,6.61,0,0,1,4.14-2.1,14.86,14.86,0,0,1,4.62.37c1.5.31,3,.63,4.48,1-1.52-.17-3-.4-4.54-.63a16.3,16.3,0,0,0-4.5-.26,6.43,6.43,0,0,0-3.92,1.86A4.71,4.71,0,0,0,558.65,19.2Z"/><path d="M575.09,161.46c-.66,4.81-1.43,9.59-2.3,14.37s-1.9,9.51-3,14.23c-2.22,9.45-4.91,18.79-8,28s-6.63,18.26-10.64,27.1a228.42,228.42,0,0,1-13.74,25.63q3.63-6.3,6.91-12.78c2.21-4.31,4.3-8.68,6.23-13.12q5.82-13.31,10.43-27.1c3.14-9.16,5.81-18.47,8.17-27.87,1.18-4.69,2.25-9.42,3.23-14.16S574.29,166.24,575.09,161.46Z"/><path class="cls-23" d="M441.75,349.6c.78,2.91.74,6,1.89,8.83.6,1.49,1.32,2.35,3.12,1.89,13.47-3.45,26.93-7,39.77-12.4a38.5,38.5,0,0,0,3.65-2c2.28-2.78,2-3.61-1.54-4.5a33.74,33.74,0,0,0-10.22-.58c-7.72.46-15.21-.1-22.06-4.15-3.08-.06-3.2,2.47-3.61,4.44-.95,4.64-1.76,5.34-6.43,5-1.59-.12-3.19-.73-4.76.06C441.62,347.3,441.69,348.45,441.75,349.6Z"/><path class="cls-7" d="M460,330.86a15.49,15.49,0,0,0,.62,4.28,3.21,3.21,0,0,0,1.17,2c1.49.88,1.68,2.24,1.57,3.75-.05,0-.09.11-.14.12-4.12.43-5.88,3.39-7.26,6.76-.34.84-.75,1.66-1,2.53-.63,1.92-2,2.6-3.91,2.53-2.86-.11-5.66-.66-8.48-1-.95-.26-1.26-1-1.42-1.88a116.35,116.35,0,0,0-3.55-14.63,6.37,6.37,0,0,0-.52-1.36,3.43,3.43,0,0,1,.74-4.72c3.57-3.13,8-4.61,12.34-6.17,1.71-.61,3.5-1,5.27-1.48.56-.15,1.16-.5,1.67.13,2-.2,2.37.29,2.74,2.28A18,18,0,0,1,460,330.86Z"/><path class="cls-24" d="M453.32,338c-.1-.1-.35-.27-.32-.35a1,1,0,0,1,.41-.54,15,15,0,0,1,5.68-1.84.69.69,0,0,1,.78.32.36.36,0,0,1-.27.55,18.17,18.17,0,0,0-5.88,1.85A1,1,0,0,1,453.32,338Z"/><path class="cls-23" d="M329.84,361.3c6.83,3.85,14.38,3.17,21.77,3.41,1.22.05,1.62-.57,1.36-1.69s-.51-2-.76-2.93a30.47,30.47,0,0,0-7.9-7.79c-4-2.71-6-6.31-5.74-11.14a4.91,4.91,0,0,0-.79-3.22c-1.83-1.71-3.64-.26-5.33.2-5,1.36-6,1-9-3.33-1-1.48-1.26-4-4-3.7-1.51,1.52-3,3-4.53,4.56-5.18,5.42-4.93,9.15,1.2,13.61A81.77,81.77,0,0,1,329.84,361.3Z"/><path class="cls-7" d="M338.26,340.11c-1.24-1.14-2.71-.95-4.13-.59a27.64,27.64,0,0,0-4.31,1.45c-2.38,1-4.33.41-6.18-1.21-2.05-1.81-3.69-4-5.56-6a11,11,0,0,1,1.95-3.27,125.48,125.48,0,0,0,7.49-12.7c.33-.5.71-1,1-1.5.64-1.19.86-.41,1.14.21a1.09,1.09,0,0,1,.38.39c2.29,5.82,7.31,7.94,12.78,9.49,1.18.34,2.61.09,3.46,1.33a3.86,3.86,0,0,1-1.15,3.48,30.3,30.3,0,0,0-5.27,7.79C339.58,339.63,339.23,340.38,338.26,340.11Z"/><path class="cls-25" d="M330.38,328.62a35.36,35.36,0,0,1-4.76-4.22c-.21-.22-.46-.47-.18-.77s.56-.09.78.11c.73.64,1.48,1.26,2.15,2a10.78,10.78,0,0,0,4.21,2.77c.38.14.74.29.57.73s-.57.32-.92.17A8.2,8.2,0,0,1,330.38,328.62Z"/><path class="cls-4" d="M371.48,184.72,399,252.44c.92,2.27-26.5,54.21-40.16,77.85-1.43,2.48-3.14,2.84-5.61,2.37-2.22-.43-25.17-8-26.32-8.47-4.1-1.53-4.8-3.63-3-7.94,12.15-28.51,23.65-57.3,36-85.73C366.33,215.78,370.48,200.71,371.48,184.72Z"/><path class="cls-7" d="M401.56,218.77a65.79,65.79,0,0,1-10.1,30.64A370.41,370.41,0,0,0,369,291.35c-5.32,11.52-10.79,23-16.25,34.42-.7,1.47-1.06,3.2-3.43,4.93,3.33-7.53,6.16-14.23,9.16-20.77q9.72-21.24,20.79-41.83c4.46-8.28,8.88-16.62,14.21-24.46,4.93-7.24,5.66-16,7-24.39A1.4,1.4,0,0,1,401.56,218.77Z"/><path class="cls-26" d="M368.83,174.51c11.67-3.58,23.88-3.89,35.82-5.79,7.5-1.19,15-2.95,22.67-2.79q19.94,77.58,39.94,155.13c1.06,4.08,1.48,7.21-3.64,8.22-.39.46-15.14,3.65-15.75,3.71-15.59,1.47-15.59,1.47-21.64-13.23-7.62-18.52-15.21-37.06-23-55.54-.71-1.69-31.89-74.37-31.8-79.5C371.48,181.08,369.83,177.88,368.83,174.51Z"/><path class="cls-10" d="M432.13,101a65.16,65.16,0,0,0-6.92-23.82c-2.5-4.86-9.19-17.85-22.06-23.6a52.77,52.77,0,0,0-10-3.15,45,45,0,0,0-13.27-.89c-7.45.61-13.42,3.92-18.65,9.12a92.31,92.31,0,0,0-24.32,41.44c-6.2,21.65-9.19,43.39-6,65.71,4.47,2.23,8,2.18,12.26-.42,5.25-13.62,5.9-33.69,13-45.2,0,16.82-1.6,33.55-2.86,50.23-.29,3.86.6,4.92,4.6,4.56,3.41-.31,7.38-1.4,11.06-.44a12.53,12.53,0,0,0,4.93.45c16.35-2.37,32.77-4.47,49.12-7a9,9,0,0,0,4.45-1.89,4.36,4.36,0,0,1,1.58-.87c8-1.67,10-3.07,10.39-9.72C435.87,137.46,431.12,119.88,432.13,101Z"/><path class="cls-9" d="M462.44,149.39c-8.19-10.52-16.33-20.93-24.58-31.36a25.77,25.77,0,0,1-5.41-14.24c-.09-.93-.21-1.84-.32-2.75-1,18.84,3.74,36.42,7.28,54.47,0-.9.08-1.89.09-3,5.86,3.46,11.06,7.74,17.47,10.18a21.78,21.78,0,0,0,8.66-8.13C465.3,152.4,463.69,151,462.44,149.39Z"/><path class="cls-27" d="M330.92,165.84c4.08-.09,8.14-.37,12.24-.38-2.84,9.73.77,20,1.86,29.33.58,5-2.09,5.48-5.53,5-9.33-1.23-12.16-6.76-9.13-15.1C332.75,178.13,331.26,172.54,330.92,165.84Z"/><path class="cls-27" d="M456.93,162.73c2.67-2.94,5.23-6,8.65-8.14,2.61,6.68,9,6.23,14.39,7.76,3,.85,8,.64,8.09,4.17s-2.58,7.08-6,9.43c-4.38,3-8.17,3.33-11.86-1.07C466.29,170.27,461.62,166.48,456.93,162.73Z"/><path class="cls-7" d="M396.12,179.58c5.9,8.71,2.67,22.54-3.26,26.16C399.45,197.67,399.57,188.87,396.12,179.58Z"/><path class="cls-28" d="M362.88,85.62c.61,1.56.23,2.22-.11,3.91-4.9,24.61-12.16,48.43-18.19,72.89-.16.65-.17,1.79-.33,2.47a9.67,9.67,0,0,1-.91,1.82c-1.4-1.1-.27-3.64.08-5,6.27-24.79,13.47-48.88,18.39-73.91.11-.54-.06-.83.1-1.23S362.63,86,362.88,85.62Z"/><path class="cls-27" d="M410.6,32.77c-.44,1.08.52,4.91.72,6.07a12.68,12.68,0,0,1-1.77,5.34c-3.72,6.09-11.5,6.5-12.4,6.54-2.44.21-4.52.44-6.29.66-13.43,1.6-9.21,2.42-11.49-9,.54-3.7-2.93-1.49-6.78-4.5-2.38-2.58-2.84-6.92.3-9.57,6.9-6.15,10.57,4.61,11.58,1.84a13.27,13.27,0,0,0,.89-2.42L382.49,26l-10-13.65,0-.12c.74-2.69,2.47-7,6.55-9.75,8.32-5.54,21.9-1.31,26.64,7.42a17.22,17.22,0,0,1,1.86,9.61q.34,0,.69,0a6.85,6.85,0,0,1,2.37,13.28Z"/><path class="cls-7" d="M392.06,19.52a7.27,7.27,0,0,0-3.67,2.12,8.46,8.46,0,0,0-.85,1.12.54.54,0,0,0,.13.81c.3.19.54,0,.72-.22a7.1,7.1,0,0,1,3.86-2.83c.27-.09.54-.24.47-.59S392.39,19.5,392.06,19.52Z"/><path d="M376.35,29.54a6.06,6.06,0,0,0-2.33.81c-.31.2-.63.51-.38.88s.6.08.9-.13a3.16,3.16,0,0,1,4.29.42c.32.36.52.54-.18.73A3.86,3.86,0,0,0,376,34.83c-.12.33-.27.78.09,1s.59-.27.73-.57a3.78,3.78,0,0,1,1.53-1.82,1.51,1.51,0,0,1,2.2.45c.23.3.46.64.84.4s.12-.59,0-.87C380.24,31.4,378.89,29.73,376.35,29.54Z"/><path class="cls-7" d="M407,20.23l-.21-.64a3.87,3.87,0,0,0-3.64-.95c-.33.08-.71.19-.62.61s.45.38.81.32a2.39,2.39,0,0,1,1.95.22c.44.06.64.4.87.71A1.07,1.07,0,0,0,407,20.23Z"/><path d="M400.83,25c.35,1,.67,1.92,1,2.87a4.59,4.59,0,0,1,.38,1.19c.62.9-.17.82-.66.95s-1.25,0-1.63.65L400,31a6.15,6.15,0,0,0,3.33-.81.47.47,0,0,0,.13-.61c-.63-1.55-1.27-3.08-1.91-4.62Z"/><path class="cls-27" d="M380.61,51.18s11.22,16.22,17.95,14.63-1.42-15.09-1.42-15.09Z"/><path class="cls-29" d="M400.57,58.28a19.48,19.48,0,0,1-7.08-2.2A20.84,20.84,0,0,1,384.14,45a19.32,19.32,0,0,0,4.17,4.1,20,20,0,0,0,10.6,3.64Z"/><path d="M398.56,52.88a13.12,13.12,0,0,1-7-.86,12.65,12.65,0,0,1-5.6-4.31,21.91,21.91,0,0,0,5.9,3.59A23.3,23.3,0,0,0,398.56,52.88Z"/><path class="cls-7" d="M410.6,32.77c-3.35-2.34-8.47,4.88-15.55,3.5-5-1-9.88-6-9.51-10.65a7.34,7.34,0,0,1,1.56-3.82c2-4.18-2.74-7.63-6.2-8.9a12.71,12.71,0,0,0-8.41-.66c-9.77,2.63-15.64,16.67-6.62,24.58.81,1.62,2.09,3.58,3.73,3.61,1,0,1.38-.77,2.48-1.1,3.16-.93,6.36,3.62,7.29,3,.54-3.7-2.93-1.49-6.78-4.5-2.38-2.58-2.84-6.92.3-9.57C378,23.76,383.09,30,383.09,30c0,.26.4,7.58-.49,11.28a16.36,16.36,0,0,0,8.26,10.07l.19.09a15.27,15.27,0,0,0,15.76-1.73,15.18,15.18,0,0,0,5.34-10.22C412.28,37.48,412.5,34.12,410.6,32.77Z"/><path d="M399.5,44.21a6.16,6.16,0,0,0,1.05-.14c.29-.08.71-.2.58-.63s-.49-.24-.75-.17a3.11,3.11,0,0,1-2.6-.39,2.77,2.77,0,0,1-.9-.87c-.17-.26-.41-.48-.71-.24s-.18.57.06.83A3.84,3.84,0,0,0,399.5,44.21Z"/><circle class="cls-8" cx="394.21" cy="31.03" r="3.25"/><circle class="cls-8" cx="407.02" cy="28.27" r="3.25"/><path d="M392.92,27.21a1.08,1.08,0,0,0,1.2,1.06c.84,0,1.4-.49,1.38-1.17a1.83,1.83,0,0,0-1.5-1.55C393.41,25.57,392.89,26.29,392.92,27.21Z"/><path d="M404.6,25a1,1,0,0,0,1,1.17,1,1,0,0,0,1.09-1.07,1.15,1.15,0,0,0-1.15-1.19C404.9,23.92,404.65,24.42,404.6,25Z"/><path class="cls-8" d="M391.71,14.25a15.37,15.37,0,0,1,5.57-2.1,15.09,15.09,0,0,1,6,.06c-2,.26-3.89.46-5.8.81S393.65,13.81,391.71,14.25Z"/><path class="cls-8" d="M390.07,11.6c1.74-.81,3.48-1.47,5.2-2.19s3.45-1.43,5.26-2.06a18.58,18.58,0,0,1-4.92,2.88A18.84,18.84,0,0,1,390.07,11.6Z"/></svg>